<?xml version="1.0" standalone="no"?>
<!DOCTYPE svg PUBLIC "-//W3C//DTD SVG 20010904//EN"
 "http://www.w3.org/TR/2001/REC-SVG-20010904/DTD/svg10.dtd">
<svg version="1.0" xmlns="http://www.w3.org/2000/svg"
 width="1000.000000pt" height="1000.000000pt" viewBox="0 0 1000.000000 1000.000000"
 preserveAspectRatio="xMidYMid meet">
<metadata>
Created by potrace 1.11, written by Peter Selinger 2001-2013
</metadata>
<g transform="translate(0.000000,1000.000000) scale(0.100000,-0.100000)"
fill="#000000" stroke="none">
<path d="M0 5000 l0 -5000 5000 0 5000 0 0 5000 0 5000 -5000 0 -5000 0 0
-5000z m5930 1060 l0 -780 850 0 850 0 0 780 0 780 335 0 335 0 0 -1810 0
-1810 -335 0 -335 0 0 790 0 790 -850 0 -850 0 0 -790 0 -790 -335 0 -335 0 0
1810 0 1810 335 0 335 0 0 -780z m-2492 638 c133 -321 1406 -3437 1409 -3450
5 -16 -5 -18 -105 -18 -101 0 -113 2 -137 23 -21 17 -79 150 -239 547 l-213
525 -872 0 -873 0 -202 -505 c-112 -278 -210 -519 -219 -536 -23 -45 -58 -55
-174 -52 l-102 3 722 1767 722 1768 127 0 126 0 30 -72z"/>
<path d="M3277 6490 c-3 -8 -15 -46 -28 -85 -16 -50 -586 -1469 -756 -1882 -4
-10 157 -13 787 -13 750 0 792 1 788 18 -3 9 -162 404 -353 877 -192 473 -368
914 -391 980 -23 66 -45 113 -47 105z"/>
</g>
</svg>
