<?xml version="1.0" standalone="no"?>
<!DOCTYPE svg PUBLIC "-//W3C//DTD SVG 20010904//EN"
 "http://www.w3.org/TR/2001/REC-SVG-20010904/DTD/svg10.dtd">
<svg version="1.0" xmlns="http://www.w3.org/2000/svg"
 width="512.000000pt" height="512.000000pt" viewBox="0 0 512.000000 512.000000"
 preserveAspectRatio="xMidYMid meet">
<metadata>
Created by potrace 1.11, written by Peter Selinger 2001-2013
</metadata>
<g transform="translate(0.000000,512.000000) scale(0.100000,-0.100000)"
fill="#000000" stroke="none">
<path d="M2645 3846 c-60 -28 -87 -56 -114 -116 -20 -44 -21 -59 -21 -1180 l0
-1135 24 -50 c28 -60 56 -87 116 -114 44 -20 61 -21 948 -21 619 0 917 3 946
11 59 15 114 62 142 123 l24 51 0 1132 c0 1032 -1 1136 -17 1175 -17 45 -57
90 -108 124 -29 18 -58 19 -960 22 l-930 2 -50 -24z m532 -751 c1 -214 2 -396
2 -402 1 -10 95 -13 436 -13 l435 0 0 405 0 405 180 0 180 0 0 -945 0 -945
-180 0 -180 0 0 410 0 410 -435 0 c-239 0 -435 -3 -436 -7 0 -5 -1 -189 -1
-411 l-1 -402 -181 2 -181 3 -1 935 c0 514 1 938 4 943 2 4 83 6 180 5 l177
-3 2 -390z"/>
<path d="M1077 3312 c-120 -303 -233 -592 -382 -972 -133 -340 -217 -552 -274
-697 l-21 -53 159 0 c227 0 204 -22 330 320 l49 135 387 0 387 0 13 -35 c8
-19 40 -107 71 -195 46 -127 65 -167 92 -192 l33 -33 165 0 164 0 -21 53 c-69
173 -227 575 -254 647 -18 47 -110 281 -205 520 -94 239 -189 482 -212 540
-22 58 -44 110 -49 116 -7 8 -67 12 -188 12 l-178 0 -66 -166z m405 -635 c72
-197 128 -360 125 -363 -3 -4 -453 -7 -559 -4 -15 0 -16 3 -3 33 42 101 248
673 266 737 l12 45 15 -45 c8 -25 73 -206 144 -403z"/>
</g>
</svg>
