<?xml version="1.0" encoding="UTF-8"?>
<svg width="120px" height="40px" viewBox="0 0 120 40" version="1.1" xmlns="http://www.w3.org/2000/svg" xmlns:xlink="http://www.w3.org/1999/xlink">
    <title>available_on_github_black</title>
    <g id="Page-1" stroke="none" stroke-width="1" fill="none" fill-rule="evenodd">
        <g id="available_on_github_black" transform="translate(0.000000, -0.000130)" fill-rule="nonzero">
            <g id="Path">
                <path d="M110.13477,0 L9.53468,0 C9.16798,0 8.80568,0 8.43995,0.00213 C8.1338,0.00413 7.83009,0.00994 7.521,0.01483 C6.84951368,0.0227318036 6.17960647,0.0818062599 5.5171,0.19154 C4.85552408,0.303662628 4.21467252,0.51504574 3.61622,0.81854 C3.01849941,1.12460171 2.47234502,1.52229753 1.99757,1.9972 C1.5203025,2.47076699 1.12246318,3.01814638 0.81935,3.61829 C0.515400242,4.21723912 0.304640498,4.8590683 0.19435,5.52161 C0.0830109412,6.18331491 0.0230983806,6.85265054 0.01515,7.52361 C0.00587,7.83021 0.00489,8.13783 0,8.44447 L0,31.55873 C0.00489,31.86923 0.00587,32.17003 0.01515,32.48063 C0.023100818,33.1515562 0.0830133796,33.8208584 0.19435,34.48253 C0.304335953,35.145459 0.515108158,35.7876566 0.81935,36.38683 C1.12232555,36.9850329 1.52022081,37.5301962 1.99757,38.00113 C2.47054482,38.478144 3.01705224,38.8761104 3.61622,39.17983 C4.21466797,39.4841365 4.85545044,39.6967778 5.5171,39.81063 C6.1797191,39.9194847 6.84955741,39.9785832 7.521,39.98743 C7.83009,39.99423 8.1338,39.99813 8.43995,39.99813 C8.80567,40.00013 9.168,40.00013 9.53468,40.00013 L110.13477,40.00013 C110.49417,40.00013 110.85937,40.00013 111.21877,39.99813 C111.52347,39.99813 111.83597,39.99423 112.14067,39.98743 C112.810843,39.9790537 113.47942,39.9199515 114.14067,39.81063 C114.804454,39.6959764 115.447534,39.4833914 116.04887,39.17983 C116.647497,38.8759346 117.1935,38.4779791 117.66607,38.00113 C118.142188,37.5283518 118.540932,36.9835873 118.84767,36.38683 C119.149629,35.7872208 119.358395,35.1450745 119.46677,34.48253 C119.578285,33.8207676 119.640323,33.1516143 119.65237,32.48063 C119.65627,32.17003 119.65627,31.86923 119.65627,31.55873 C119.66407,31.19543 119.66407,30.83413 119.66407,30.46493 L119.66407,9.53626 C119.66407,9.17005 119.66407,8.80677 119.65627,8.44447 C119.65627,8.13783 119.65627,7.83021 119.65237,7.52357 C119.640326,6.85255244 119.578287,6.18336567 119.46677,5.52157 C119.358093,4.8594116 119.149339,4.21763328 118.84767,3.61825 C118.230394,2.41532608 117.251573,1.4361554 116.04887,0.81845 C115.447532,0.51569738 114.804383,0.30437041 114.14067,0.19145 C113.479535,0.0812327831 112.810888,0.0221377649 112.14067,0.01469 C111.83597,0.00981 111.52347,0.00395 111.21877,0.002 C110.85937,0 110.49417,0 110.13477,0 L110.13477,0 Z" fill="#A6A6A6"></path>
                <path d="M8.44483,39.12513 C8.14015,39.12513 7.84283,39.12123 7.54054,39.11443 C6.91432177,39.1062707 6.28956717,39.051755 5.6714,38.95133 C5.0949903,38.8520582 4.53660424,38.6673945 4.01466,38.40343 C3.4975017,38.1416527 3.02581177,37.7984029 2.61766,37.38683 C2.20360033,36.9801053 1.85887673,36.508374 1.59715,35.99033 C1.33253926,35.4689191 1.14941288,34.9100296 1.05415,34.33313 C0.951274358,33.7132449 0.895614374,33.0864432 0.88765,32.45813 C0.88131,32.24723 0.87301,31.54503 0.87301,31.54503 L0.87301,8.44447 C0.87301,8.44447 0.88185,7.75306 0.8877,7.54993 C0.895325827,6.92261205 0.950662148,6.2967831 1.05323,5.67786 C1.14866872,5.09938008 1.33193687,4.53887887 1.59669,4.01576 C1.85745482,3.49807385 2.20026458,3.02599029 2.61183,2.61781 C3.02293283,2.20575142 3.49613161,1.86073412 4.01417,1.59534 C4.53491467,1.3322236 5.09224545,1.14886255 5.66749,1.0514 C6.28768733,0.949966139 6.91461084,0.895126084 7.543,0.88734 L8.44532,0.87513 L111.21387,0.87513 L112.12697,0.88783 C112.749643,0.895229198 113.370872,0.949580006 113.98537,1.05042 C114.566438,1.14910507 115.129577,1.33374553 115.65627,1.59827 C116.694088,2.13311605 117.538542,2.97929295 118.07127,4.0182 C118.331797,4.53770756 118.512239,5.09363676 118.60647,5.66712 C118.710259,6.29112138 118.768347,6.92186834 118.78027,7.55433 C118.78317,7.83753 118.78317,8.14173 118.78317,8.44447 C118.79107,8.81947 118.79107,9.1764 118.79107,9.53626 L118.79107,30.46493 C118.79107,30.82823 118.79107,31.18273 118.78317,31.54013 C118.78317,31.86533 118.78317,32.16323 118.77927,32.46983 C118.767605,33.0910057 118.710486,33.7104942 118.60837,34.32333 C118.51506,34.9043912 118.33293,35.4676431 118.06837,35.99333 C117.804793,36.5057511 117.462049,36.9733962 117.05277,37.37903 C116.644251,37.7928146 116.171729,38.1380727 115.65337,38.40153 C115.128136,38.6675237 114.565826,38.8528703 113.98537,38.95133 C113.36725,39.052291 112.742435,39.1068102 112.11617,39.11443 C111.82327,39.12123 111.51657,39.12513 111.21877,39.12513 L110.13477,39.12713 L8.44483,39.12513 Z" fill="#000000"></path>
            </g>
            <g id="Udemy_logo" transform="translate(19.000000, 10.000130)">
                <polygon id="Path" fill="#A435F0" points="11.2537019 6.497511 5.62604996 3.2487555 0 6.497511 0 3.2487555 5.62685093 0 11.2545028 3.2487555 11.2545028 6.497511"></polygon>
                <path d="M0,9.2256326 L2.94758881,9.2256326 L2.94758881,16.3871521 C2.94758881,18.2374048 4.32927107,19.1393029 5.62685093,19.1393029 C6.93564444,19.1393029 8.30691402,18.2133756 8.30691402,16.3623218 L8.30691402,9.2256326 L11.2545028,9.2256326 L11.2545028,16.5577598 C11.2545028,18.262235 10.7186504,19.5774364 9.64694557,20.4793345 C8.57443975,21.3804316 7.23520918,21.819366 5.6020207,21.819366 C3.97043417,21.819366 2.63040263,21.3812326 1.58352801,20.4793345 C0.535852423,19.5782373 0,18.3118955 0,16.6306485 L0,9.2256326 Z M36.7375295,18.1260693 C35.8452431,18.9206367 34.8288056,19.3099106 33.6697944,19.3099106 C31.5552198,19.3099106 30.1374937,18.1052439 29.9772986,16.2397726 L39.500894,16.2397726 C39.500894,16.2397726 39.564972,15.6374392 39.564972,15.0719507 C39.564972,13.317815 39.0042894,11.8560352 37.8588948,10.6625821 C36.7391315,9.46912907 35.2781527,8.88441716 33.4991867,8.88441716 C31.6241037,8.88441716 30.0886342,9.46912907 28.8703509,10.6625821 C27.6768978,11.8560352 27.0681566,13.414733 27.0681566,15.3643067 L27.0681566,15.4604237 C27.0681566,17.3851672 27.6768978,18.9198357 28.8703509,20.0652303 C30.063804,21.2098239 31.647332,21.7945358 33.5720754,21.7945358 C35.8100002,21.7945358 37.5905681,20.9118611 38.9265948,19.3900082 L36.7375295,18.1260693 Z M31.1355088,12.1483912 C31.7923085,11.636568 32.5972886,11.3690423 33.4983857,11.3690423 C34.3506233,11.3690423 35.0570835,11.636568 35.6666256,12.1732214 C36.2481336,12.6618163 36.5621159,13.2617467 36.5893491,13.9513864 L30.0525903,13.9513864 C30.1471054,13.2385185 30.5075442,12.637787 31.1363098,12.1491922 L31.1355088,12.1483912 Z M66.4088556,23.4493506 C65.2129996,26.2727882 63.9618763,27.2331575 62.0435407,27.2331575 L60.7139218,27.2331575 L60.7139218,24.6203764 L61.7888305,24.6203764 C62.4488341,24.6203764 63.0623811,24.372074 63.647093,23.0232318 L64.231805,21.6727875 L59.188865,9.2256326 L62.1853133,9.2256326 L65.7664735,18.1901473 L69.4453527,9.2256326 L72.441,9.2256326 L66.4096566,23.4493506 L66.4088556,23.4493506 Z M22.7292739,4.52470903 L22.7292739,10.3373862 C21.7632977,9.47233297 20.2606682,8.9573059 18.8076992,8.9573059 C17.0775927,8.9573059 15.6166139,9.56604707 14.4231608,10.8075587 C13.253737,12.025842 12.6690251,13.5356803 12.6690251,15.3627047 C12.6690251,17.1905302 13.253737,18.7003685 14.4231608,19.9426811 C15.6166139,21.1609644 17.0783937,21.7705065 18.8076992,21.7705065 C20.8021275,21.7705065 22.0628625,20.9863518 22.7292739,20.3720038 L22.7292739,21.5021798 L25.6528334,21.5021798 L25.6528334,4.52551 L22.7292739,4.52551 L22.7292739,4.52470903 Z M21.852206,18.0435688 C21.1457458,18.750029 20.2446487,19.1160746 19.1969731,19.1160746 C18.1492975,19.1160746 17.2970599,18.750029 16.5905998,18.0435688 C15.9097708,17.3371087 15.5677544,16.4360115 15.5677544,15.3643067 C15.5677544,14.2918009 15.9089698,13.3907038 16.5905998,12.6842436 C17.2970599,11.9777835 18.1492975,11.6125388 19.1969731,11.6125388 C20.2446487,11.6125388 21.1457458,11.9777835 21.852206,12.6842436 C22.5826954,13.3907038 22.949542,14.2918009 22.949542,15.3643067 C22.949542,16.4360115 22.5826954,17.3371087 21.852206,18.0435688 Z M54.6441316,8.98213613 C52.4238282,8.98213613 51.2696229,9.90325764 50.4790604,10.7907382 C50.1626752,10.1876038 49.2719907,8.98213613 47.1910571,8.98213613 C45.4321155,8.98213613 44.3956536,9.87121863 43.8782236,10.5039891 L43.8782236,9.22723455 L40.9802953,9.22723455 L40.9802953,21.5037818 L43.8782236,21.5037818 L43.8782236,14.4391803 C43.8782236,12.7827636 44.9018699,11.5893105 46.2651298,11.5893105 C47.6548218,11.5893105 48.4581999,12.6369861 48.4581999,14.3174321 L48.4581999,21.5029808 L51.3569292,21.5029808 L51.3569292,14.4383793 C51.3569292,12.7579333 52.3549444,11.5885095 53.7918939,11.5885095 C55.180785,11.5885095 55.9841631,12.6361851 55.9841631,14.3158301 L55.9841631,21.5021798 L58.9077227,21.5021798 L58.9077227,13.9025269 C58.9077227,10.7018299 57.1872279,8.98293711 54.6441316,8.98293711 L54.6441316,8.98213613 Z" id="Shape" fill="#FFFFFF"></path>
            </g>
            <g id="Available-on" transform="translate(33.025000, 3.000130)" fill="#FFFFFF" font-family="HelveticaNeue, Helvetica Neue" font-size="10" font-weight="normal">
                <text>
                    <tspan x="1.44328993e-15" y="10">Available on</tspan>
                </text>
            </g>
        </g>
    </g>
</svg>