<?xml version="1.0" encoding="UTF-8"?>
<svg width="120px" height="40px" viewBox="0 0 120 40" version="1.1" xmlns="http://www.w3.org/2000/svg" xmlns:xlink="http://www.w3.org/1999/xlink">
    <title>download_on_the_app_store_black</title>
    <g id="Page-1" stroke="none" stroke-width="1" fill="none" fill-rule="evenodd">
        <g id="download_on_the_app_store_black" transform="translate(0.000000, -0.000130)">
            <g id="Group" fill-rule="nonzero">
                <g id="Path">
                    <path d="M110.13477,0 L9.53468,0 C9.16798,0 8.80568,0 8.43995,0.00213 C8.1338,0.00413 7.83009,0.00994 7.521,0.01483 C6.84951368,0.0227318036 6.17960647,0.0818062599 5.5171,0.19154 C4.85552408,0.303662628 4.21467252,0.51504574 3.61622,0.81854 C3.01849941,1.12460171 2.47234502,1.52229753 1.99757,1.9972 C1.5203025,2.47076699 1.12246318,3.01814638 0.81935,3.61829 C0.515400242,4.21723912 0.304640498,4.8590683 0.19435,5.52161 C0.0830109412,6.18331491 0.0230983806,6.85265054 0.01515,7.52361 C0.00587,7.83021 0.00489,8.13783 0,8.44447 L0,31.55873 C0.00489,31.86923 0.00587,32.17003 0.01515,32.48063 C0.023100818,33.1515562 0.0830133796,33.8208584 0.19435,34.48253 C0.304335953,35.145459 0.515108158,35.7876566 0.81935,36.38683 C1.12232555,36.9850329 1.52022081,37.5301962 1.99757,38.00113 C2.47054482,38.478144 3.01705224,38.8761104 3.61622,39.17983 C4.21466797,39.4841365 4.85545044,39.6967778 5.5171,39.81063 C6.1797191,39.9194847 6.84955741,39.9785832 7.521,39.98743 C7.83009,39.99423 8.1338,39.99813 8.43995,39.99813 C8.80567,40.00013 9.168,40.00013 9.53468,40.00013 L110.13477,40.00013 C110.49417,40.00013 110.85937,40.00013 111.21877,39.99813 C111.52347,39.99813 111.83597,39.99423 112.14067,39.98743 C112.810843,39.9790537 113.47942,39.9199515 114.14067,39.81063 C114.804454,39.6959764 115.447534,39.4833914 116.04887,39.17983 C116.647497,38.8759346 117.1935,38.4779791 117.66607,38.00113 C118.142188,37.5283518 118.540932,36.9835873 118.84767,36.38683 C119.149629,35.7872208 119.358395,35.1450745 119.46677,34.48253 C119.578285,33.8207676 119.640323,33.1516143 119.65237,32.48063 C119.65627,32.17003 119.65627,31.86923 119.65627,31.55873 C119.66407,31.19543 119.66407,30.83413 119.66407,30.46493 L119.66407,9.53626 C119.66407,9.17005 119.66407,8.80677 119.65627,8.44447 C119.65627,8.13783 119.65627,7.83021 119.65237,7.52357 C119.640326,6.85255244 119.578287,6.18336567 119.46677,5.52157 C119.358093,4.8594116 119.149339,4.21763328 118.84767,3.61825 C118.230394,2.41532608 117.251573,1.4361554 116.04887,0.81845 C115.447532,0.51569738 114.804383,0.30437041 114.14067,0.19145 C113.479535,0.0812327831 112.810888,0.0221377649 112.14067,0.01469 C111.83597,0.00981 111.52347,0.00395 111.21877,0.002 C110.85937,0 110.49417,0 110.13477,0 L110.13477,0 Z" fill="#E9E9E9"></path>
                    <path d="M8.44483,39.12513 C8.14015,39.12513 7.84283,39.12123 7.54054,39.11443 C6.91432177,39.1062707 6.28956717,39.051755 5.6714,38.95133 C5.0949903,38.8520582 4.53660424,38.6673945 4.01466,38.40343 C3.4975017,38.1416527 3.02581177,37.7984029 2.61766,37.38683 C2.20360033,36.9801053 1.85887673,36.508374 1.59715,35.99033 C1.33253926,35.4689191 1.14941288,34.9100296 1.05415,34.33313 C0.951274358,33.7132449 0.895614374,33.0864432 0.88765,32.45813 C0.88131,32.24723 0.87301,31.54503 0.87301,31.54503 L0.87301,8.44447 C0.87301,8.44447 0.88185,7.75306 0.8877,7.54993 C0.895325827,6.92261205 0.950662148,6.2967831 1.05323,5.67786 C1.14866872,5.09938008 1.33193687,4.53887887 1.59669,4.01576 C1.85745482,3.49807385 2.20026458,3.02599029 2.61183,2.61781 C3.02293283,2.20575142 3.49613161,1.86073412 4.01417,1.59534 C4.53491467,1.3322236 5.09224545,1.14886255 5.66749,1.0514 C6.28768733,0.949966139 6.91461084,0.895126084 7.543,0.88734 L8.44532,0.87513 L111.21387,0.87513 L112.12697,0.88783 C112.749643,0.895229198 113.370872,0.949580006 113.98537,1.05042 C114.566438,1.14910507 115.129577,1.33374553 115.65627,1.59827 C116.694088,2.13311605 117.538542,2.97929295 118.07127,4.0182 C118.331797,4.53770756 118.512239,5.09363676 118.60647,5.66712 C118.710259,6.29112138 118.768347,6.92186834 118.78027,7.55433 C118.78317,7.83753 118.78317,8.14173 118.78317,8.44447 C118.79107,8.81947 118.79107,9.1764 118.79107,9.53626 L118.79107,30.46493 C118.79107,30.82823 118.79107,31.18273 118.78317,31.54013 C118.78317,31.86533 118.78317,32.16323 118.77927,32.46983 C118.767605,33.0910057 118.710486,33.7104942 118.60837,34.32333 C118.51506,34.9043912 118.33293,35.4676431 118.06837,35.99333 C117.804793,36.5057511 117.462049,36.9733962 117.05277,37.37903 C116.644251,37.7928146 116.171729,38.1380727 115.65337,38.40153 C115.128136,38.6675237 114.565826,38.8528703 113.98537,38.95133 C113.36725,39.052291 112.742435,39.1068102 112.11617,39.11443 C111.82327,39.12123 111.51657,39.12513 111.21877,39.12513 L110.13477,39.12713 L8.44483,39.12513 Z" fill="#FFFFFF"></path>
                </g>
            </g>
            <g id="Group-2" transform="translate(40.500000, 4.000130)" fill="#000000" font-family="HelveticaNeue-Medium, Helvetica Neue" font-weight="400">
                <text id="Available-on" font-size="10" letter-spacing="0.4">
                    <tspan x="0.525" y="10">Available on</tspan>
                </text>
                <text id="GitHub" font-size="19">
                    <tspan x="0.22" y="28">GitHub</tspan>
                </text>
            </g>
            <path d="M20.7882302,7.00013 C13.1745672,7.00013 7,13.1738507 7,20.7900533 C7,26.8825074 10.9507411,32.0505541 16.4303097,33.8739731 C17.1202291,34.0009521 17.3716476,33.5751491 17.3716476,33.2094495 C17.3716476,32.8818436 17.3597962,32.015 17.353024,30.8645699 C13.5174106,31.6975524 12.7081309,29.0157552 12.7081309,29.0157552 C12.0808545,27.4225916 11.1767637,26.9984816 11.1767637,26.9984816 C9.92475045,26.1434894 11.2715748,26.1604199 11.2715748,26.1604199 C12.6556462,26.2577705 13.3836594,27.5817386 13.3836594,27.5817386 C14.613663,29.6887441 16.6114665,29.0800912 17.3970434,28.7270895 C17.5223294,27.8365432 17.8787172,27.2287369 18.2723523,26.8842004 C15.2104644,26.5362779 11.9911226,25.3528333 11.9911226,20.0688123 C11.9911226,18.5636875 12.5286672,17.3319909 13.4107482,16.3686432 C13.2685317,16.0198742 12.7953232,14.6171791 13.5461925,12.7192658 C13.5461925,12.7192658 14.7033948,12.348487 17.3377865,14.1329657 C18.437425,13.826523 19.6174835,13.6741481 20.7899233,13.6682224 C21.9615165,13.6741481 23.1407285,13.826523 24.24206,14.1329657 C26.8747586,12.348487 28.0302679,12.7192658 28.0302679,12.7192658 C28.7828303,14.6171791 28.3096218,16.0198742 28.1682518,16.3686432 C29.0520258,17.3319909 29.5853378,18.5636875 29.5853378,20.0688123 C29.5853378,25.3663777 26.3609168,26.5320453 23.2897172,26.8731956 C23.7840889,27.2989986 24.2251294,28.1404464 24.2251294,29.4263207 C24.2251294,31.2700563 24.2081989,32.7574041 24.2081989,33.2094495 C24.2081989,33.5785352 24.4570778,34.0077243 25.156309,33.8731266 C30.631645,32.045475 34.579,26.8808143 34.579,20.7900533 C34.579,13.1738507 28.4044328,7.00013 20.7882302,7.00013" id="Fill-51" fill="#000000"></path>
        </g>
    </g>
</svg>