<?xml version="1.0" encoding="UTF-8"?>
<svg width="563px" height="563px" viewBox="0 0 563 563" version="1.1" xmlns="http://www.w3.org/2000/svg" xmlns:xlink="http://www.w3.org/1999/xlink">
    <title>development-lifecycle</title>
    <g id="Page-1" stroke="none" stroke-width="1" fill="none" fill-rule="evenodd">
        <g id="development-lifecycle">
            <rect id="Rectangle" x="0" y="0" width="563" height="563"></rect>
            <g id="Group-2" transform="translate(59, 69)" fill-rule="nonzero">
                <path d="M223.08447,418 C221.08887,417.98438 219.07031,417.97071 217.08789,417.90918 L217.14942,415.91018 C219.11133,415.97073 221.11768,415.99807 223.08496,416.00002 C225.06104,416.00002 227.07471,415.9678 229.07227,415.90334 L229.13672,417.90139 C227.11719,417.9668 225.08154,418 223.08447,418 Z M205.06547,417.15528 C201.08403,416.77828 197.06303,416.26758 193.11479,415.6377 L193.43022,413.66309 C197.33647,414.28614 201.3145,414.792 205.25395,415.16509 L205.06547,417.15528 Z M241.15776,417.13379 L240.96733,415.14356 C244.90533,414.76656 248.88285,414.25586 252.7891,413.62696 L253.10746,415.60157 C249.15869,416.23731 245.13819,416.75293 241.15772,417.13379 L241.15776,417.13379 Z M181.2852,413.35547 C177.38676,412.47168 173.4644,411.44825 169.62748,410.31447 L170.19438,408.39647 C173.99028,409.51854 177.87065,410.53026 181.72758,411.40428 L181.2852,413.35547 Z M264.93364,413.30567 L264.4893,411.35645 C268.35502,410.47461 272.23442,409.45801 276.01908,408.33399 L276.58842,410.25199 C272.7627,411.3877 268.84131,412.41504 264.9336,413.30567 L264.93364,413.30567 Z M158.18852,406.5293 C154.4268,405.14746 150.66313,403.62598 147.002,402.00586 L147.81157,400.17774 C151.43315,401.7793 155.15629,403.28516 158.87797,404.65235 L158.18852,406.5293 Z M288.02152,406.45118 L287.33011,404.57418 C291.02884,403.21188 294.73929,401.70699 298.35794,400.10153 L299.16947,401.92965 C295.51074,403.55274 291.76026,405.07422 288.02149,406.45118 L288.02152,406.45118 Z M136.13431,396.77149 C132.59431,394.92383 129.05911,392.93164 125.62796,390.85157 L126.66507,389.14063 C130.06007,391.2002 133.55716,393.16993 137.0596,394.99805 L136.13431,396.77149 Z M310.00687,396.69825 L309.08109,394.92578 C312.57523,393.09864 316.06449,391.12891 319.45023,389.07129 L320.48929,390.78029 C317.06641,392.86035 313.54004,394.85059 310.00684,396.69825 L310.00687,396.69825 Z M115.52539,384.27149 C112.24658,381.9834 108.99707,379.55664 105.86621,377.06055 L107.11328,375.4961 C110.21094,377.9668 113.42628,380.36719 116.66992,382.63086 L115.52539,384.27149 Z M330.5752,384.2002 L329.42871,382.56153 C332.67188,380.29493 335.88281,377.89453 338.97266,375.42676 L340.22071,376.98926 C337.09766,379.4834 333.85254,381.90918 330.5752,384.2002 L330.5752,384.2002 Z M96.68799,369.24707 C93.72412,366.55664 90.81006,363.73731 88.02832,360.86914 L89.46387,359.47657 C92.21631,362.31446 95.09961,365.10357 98.03272,367.76657 L96.68799,369.24707 Z M349.38965,369.17774 L348.04395,367.69727 C350.96973,365.04004 353.85059,362.24903 356.60742,359.40427 L358.04297,360.7949 C355.25781,363.67087 352.34571,366.49121 349.38965,369.17774 L349.38965,369.17774 Z M79.9209,351.95899 C77.32569,348.91599 74.79541,345.75099 72.39942,342.55176 L74.00049,341.35254 C76.3711,344.51854 78.87449,347.65039 81.44238,350.66016 L79.9209,351.95899 Z M366.14844,351.87599 L364.62696,350.57911 C367.19434,347.56642 369.69824,344.43068 372.06836,341.26076 L373.66992,342.45802 C371.27442,345.66211 368.7441,348.83106 366.14844,351.87599 L366.14844,351.87599 Z M65.49463,332.68457 C63.30663,329.33399 61.20117,325.87403 59.23633,322.40039 L60.97754,321.41602 C62.9209,324.85254 65.0044,328.27637 67.16944,331.59082 L65.49463,332.68457 Z M380.57715,332.57618 L378.90137,331.48438 C381.06737,328.16309 383.15037,324.73338 385.09473,321.28907 L386.83692,322.27149 C384.8721,325.75387 382.76563,329.22071 380.57715,332.57618 L380.57715,332.57618 Z M53.65137,311.73828 C51.91113,308.13868 50.26709,304.43946 48.76514,300.74219 L50.61768,299.99019 C52.10401,303.64644 53.73047,307.30659 55.45215,310.86719 L53.65137,311.73828 Z M392.42383,311.58203 L390.6231,310.71287 C392.3438,307.14647 393.97076,303.47655 395.45904,299.80272 L397.31255,300.55272 C395.8086,304.2666 394.1641,307.97754 392.42383,311.58203 L392.42383,311.58203 Z M44.59033,289.44043 C43.3252,285.6416 42.16944,281.75586 41.15479,277.89063 L43.08936,277.38282 C44.09278,281.20606 45.23636,285.05082 46.48779,288.80762 L44.59033,289.44043 Z M401.47949,289.22852 L399.58106,288.59961 C400.8252,284.84668 401.96485,281.00098 402.96582,277.16993 L404.90137,277.67578 C403.88867,281.54887 402.73731,285.43555 401.47949,289.22852 L401.47949,289.22852 Z M38.47168,266.14652 C37.70752,262.22269 37.06104,258.22171 36.54981,254.25394 L38.53321,253.99808 C39.03906,257.92386 39.67871,261.88187 40.43457,265.76371 L38.47168,266.14652 Z M407.57031,265.92679 L405.60742,265.54788 C406.35742,261.66703 406.99317,257.70706 407.49414,253.77835 L409.47852,254.03226 C408.97168,258.00293 408.3291,262.00487 407.57031,265.92679 L407.57031,265.92679 Z M35.39356,242.26368 C35.13721,238.27735 35.00488,234.22559 35.00049,230.22068 L37.00049,230.21868 C37.00488,234.18157 37.13574,238.19036 37.38965,242.13468 L35.39356,242.26368 Z M410.6211,242.04004 L408.625,241.91309 C408.874,237.97266 409,233.96387 409,230 L408.999,229.56153 L410.999,229.56153 L411,229.99317 C411,234.00587 410.8721,238.05664 410.6211,242.04004 Z M37.36182,218.30469 L35.36572,218.18169 C35.61372,214.18755 35.99317,210.1524 36.49365,206.18755 L38.47803,206.43755 C37.98242,210.36133 37.60694,214.35352 37.36182,218.30469 Z M408.59766,217.64844 C408.33789,213.69532 407.94824,209.7041 407.43946,205.78614 L409.42188,205.52832 C409.93653,209.48832 410.33106,213.52149 410.59375,217.51758 L408.59766,217.64844 Z M40.3511,194.66797 L38.38723,194.29004 C39.14162,190.36475 40.03523,186.41114 41.04201,182.53904 L42.97756,183.04197 C41.98145,186.87305 41.09766,190.78418 40.3511,194.66797 Z M405.52248,194.02297 C404.76076,190.13723 403.86233,186.22903 402.85448,182.40627 L404.78808,181.89651 C405.80761,185.76028 406.71484,189.71051 407.48534,193.63821 L405.52248,194.02297 Z M46.34961,171.60938 L44.4502,170.98238 C45.70557,167.18208 47.10303,163.37007 48.60449,159.65181 L50.45899,160.40081 C48.97363,164.0791 47.59131,167.8501 46.34961,171.60938 Z M399.44434,170.98584 C398.18848,167.23194 396.79492,163.47168 395.30176,159.80909 L397.15332,159.0542 C398.66309,162.75635 400.07227,166.55713 401.34082,170.35108 L399.44434,170.98584 Z M55.28321,149.48287 L53.48047,148.61569 C55.21533,145.00924 57.09131,141.41061 59.05567,137.92037 L60.79883,138.90182 C58.85498,142.3545 56.99951,145.91455 55.28321,149.48287 Z M390.45508,148.93746 C388.73242,145.38619 386.87008,141.83932 384.91699,138.39546 L386.65723,137.40913 C388.63086,140.8896 390.51367,144.47505 392.25391,148.06538 L390.45508,148.93746 Z M66.98047,128.69825 L65.30371,127.60743 C67.48487,124.25489 69.80471,120.92725 72.19824,117.71778 L73.80176,118.91309 C71.4336,122.08887 69.13819,125.38087 66.98047,128.69825 Z M378.71289,128.22754 C376.54883,124.92237 374.24707,121.64063 371.87012,118.47364 L373.46973,117.27344 C375.87207,120.47461 378.19922,123.79151 380.38673,127.13184 L378.71289,128.22754 Z M81.23242,109.58643 L79.70899,108.29151 C82.29932,105.24414 85.02246,102.24024 87.80274,99.36377 L89.24121,100.75342 C86.49024,103.59961 83.7959,106.57178 81.23242,109.58643 Z M364.41699,109.17432 C361.84571,106.16797 359.14258,103.20459 356.38477,100.3667 L357.81836,98.97315 C360.60645,101.84082 363.33789,104.83594 365.93653,107.87452 L364.41699,109.17432 Z M97.79444,92.44922 L96.44776,90.97071 C99.40723,88.27491 102.48926,85.64258 105.60742,83.14746 L106.85742,84.70899 C103.77197,87.17774 100.72266,89.78223 97.79444,92.44922 L97.79444,92.44922 Z M347.80567,92.08643 C344.87305,89.43164 341.81543,86.83496 338.71582,84.36914 L339.96192,82.80371 C343.09375,85.29639 346.18457,87.92041 349.14746,90.60401 L347.80567,92.08643 Z M116.3931,77.56299 L115.24564,75.9253 C118.5181,73.63184 121.90872,71.41455 125.32327,69.33448 L126.3638,71.04248 C122.98584,73.10059 119.63086,75.29444 116.3931,77.56299 Z M329.1514,77.24463 C325.89554,74.97852 322.53031,72.792 319.14847,70.74563 L320.18363,69.03469 C323.60163,71.10256 327.00394,73.31252 330.29398,75.60305 L329.1514,77.24463 Z M136.72705,65.1753 L135.79834,63.40381 C139.33399,61.54932 142.97852,59.78467 146.6294,58.15918 L147.44287,59.98633 C143.83057,61.59424 140.22559,63.34034 136.72705,65.1753 Z M308.74705,64.90088 C305.23485,63.07276 301.6157,61.33496 297.98924,59.73535 L298.79686,57.90528 C302.46186,59.52198 306.12059,61.27881 309.67086,63.12647 L308.74705,64.90088 Z M158.4658,55.5 L157.77147,53.624 C161.52147,52.23679 165.36668,50.95359 169.20067,49.81052 L169.77195,51.72752 C165.97901,52.85787 162.17529,54.12744 158.46582,55.5 L158.4658,55.5 Z M286.91746,55.27295 C283.20018,53.91309 279.39158,52.65723 275.59764,51.54102 L276.16209,49.62202 C279.99709,50.75044 283.84715,52.02002 287.60496,53.39502 L286.91746,55.27295 Z M181.29785,48.69287 L180.85156,46.74366 C184.74268,45.85205 188.72071,45.0752 192.67529,44.43311 L192.99561,46.40772 C189.08301,47.04248 185.14746,47.81104 181.29785,48.69287 Z M264.06055,48.54737 C260.2041,47.67823 256.26563,46.92337 252.35449,46.30323 L252.66797,44.32764 C256.6211,44.95459 260.60205,45.71778 264.49997,46.59619 L264.06055,48.54737 Z M204.81592,44.87696 L204.62256,42.88672 C208.59326,42.50147 212.6377,42.23828 216.64307,42.10498 L216.70947,44.10398 C212.7461,44.23587 208.74463,44.4961 204.81592,44.87696 L204.81592,44.87696 Z M240.52881,44.81496 C236.59424,44.44729 232.59131,44.2012 228.63281,44.08352 L228.69238,42.08452 C232.69287,42.20366 236.73828,42.45219 240.71485,42.82377 L240.52881,44.81496 Z" id="Shape" fill="#4D4B54"></path>
                <circle id="Oval" fill="#716CB0" cx="216" cy="47" r="47"></circle>
                <circle id="Oval" fill="#4AA276" cx="398" cy="175" r="47"></circle>
                <circle id="Oval" fill="#5791C0" cx="341" cy="371" r="47"></circle>
                <circle id="Oval" fill="#D0AA5D" cx="115" cy="379" r="47"></circle>
                <circle id="Oval" fill="#BF586F" cx="47" cy="175" r="47"></circle>
                <path d="M236.14098,43.25287 L219.74716,43.25287 C216.642911,43.25287 214.12642,40.736379 214.12642,37.63213 L214.12642,21.23829 C214.126423,21.1140644 214.077075,20.9949261 213.989235,20.9070853 C213.901394,20.8192446 213.782256,20.7699 213.65803,20.7699 L202.88495,20.7699 C198.745955,20.7699 195.39063,24.1252153 195.39063,28.26421 L195.39063,65.73579 C195.39063,69.8747886 198.745951,73.23011 202.88495,73.23011 L229.1151,73.23011 C233.254099,73.23011 236.60942,69.8747886 236.60942,65.73579 L236.60942,43.72124 C236.60942,43.5970101 236.560057,43.4778708 236.472207,43.3900335 C236.384357,43.3021962 236.26521,43.2528567 236.14098,43.25287 Z M225.3679,61.98864 L206.6321,61.98864 C205.59735,61.98864 204.75852,61.1498097 204.75852,60.11506 C204.75852,59.0803103 205.59735,58.24148 206.6321,58.24148 L225.3679,58.24148 C226.40265,58.24148 227.24148,59.0803103 227.24148,60.11506 C227.24148,61.1498097 226.40265,61.98864 225.3679,61.98864 Z M225.3679,52.62074 L206.6321,52.62074 C205.59735,52.62074 204.75852,51.7819097 204.75852,50.74716 C204.75852,49.7124103 205.59735,48.87358 206.6321,48.87358 L225.3679,48.87358 C226.40265,48.87358 227.24148,49.7124103 227.24148,50.74716 C227.24148,51.7819097 226.40265,52.62074 225.3679,52.62074 Z" id="Shape" fill="#FFFFFF"></path>
                <path d="M235.11285,39.10638 L218.27285,22.26638 C218.205888,22.199814 218.105502,22.1799686 218.018247,22.2160472 C217.930993,22.2521259 217.873937,22.3370716 217.87354,22.43149 L217.87354,37.63207 C217.87354,38.6668197 218.71237,39.50565 219.74712,39.50565 L234.9477,39.50565 C235.042118,39.5052528 235.127064,39.4481969 235.163143,39.3609425 C235.199221,39.2736881 235.179376,39.1733024 235.11281,39.10634 L235.11285,39.10638 Z" id="Path" fill="#FFFFFF"></path>
                <path d="M347.79796,361.74129 C346.609695,361.74194 345.587353,362.581858 345.356126,363.747409 C345.1249,364.912959 345.749185,366.079542 346.847212,366.533755 C347.945239,366.987969 349.211213,366.603318 349.870952,365.615027 C350.530691,364.626736 350.40046,363.310041 349.5599,362.47014 C349.092506,362.00311 348.458698,361.740926 347.79796,361.74129 L347.79796,361.74129 Z" id="Path" fill="#FFFFFF"></path>
                <path d="M361.66488,351.78087 L361.66488,351.77247 C361.503902,351.066807 360.956702,350.513465 360.25288,350.34462 C357.47188,349.66616 353.09688,350.38942 348.2487,352.33054 C343.586538,354.142891 339.320991,356.843954 335.68924,360.28354 C334.697346,361.270169 333.775853,362.325132 332.93154,363.44067 C331.06637,363.311812 329.196483,363.612229 327.46554,364.31884 C322.07705,366.69019 320.53815,372.759 320.12846,375.25073 C320.008299,375.968371 320.229835,376.700985 320.727516,377.231796 C321.225196,377.762608 321.942033,378.030835 322.66592,377.95711 L322.67805,377.95711 L328.68061,377.30198 C328.68808,377.37851 328.69648,377.4485 328.70301,377.51289 C328.780101,378.244326 329.106296,378.927028 329.62691,379.44655 L332.55633,382.37784 C333.075074,382.899172 333.757643,383.225792 334.48906,383.30268 L334.6897,383.32414 L334.03644,389.31923 L334.03644,389.33136 C333.972795,389.946851 334.15626,390.562415 334.546475,391.042636 C334.936689,391.522857 335.501689,391.828397 336.11718,391.89204 C336.18894,391.89946 336.26094,391.903543 336.33318,391.904291 C336.46293,391.904291 336.592467,391.893779 336.72047,391.87256 C339.2262,391.4694 345.29222,389.94916 347.65703,384.53174 C348.357952,382.80668 348.65945,380.945378 348.53894,379.08726 C349.659496,378.2448 350.718311,377.323212 351.70727,376.32956 C355.144687,372.732164 357.848801,368.499909 359.66868,363.86902 C361.59955,359.07597 362.32654,354.66831 361.66488,351.78087 Z M351.67368,368.10125 C349.532911,370.244227 346.060249,370.246018 343.917272,368.105249 C341.774294,365.964481 341.772503,362.491818 343.913272,360.348841 C346.05404,358.205863 349.526702,358.204072 351.66968,360.34484 L351.67368,360.34884 C353.814438,362.457453 353.8405,365.902248 351.73189,368.04301 L351.67368,368.10125 Z" id="Shape" fill="#FFFFFF"></path>
                <path d="M332.22043,383.173 C331.859313,383.128191 331.494262,383.216797 331.19387,383.42217 C330.59753,383.82999 329.9984,384.23317 329.39366,384.62604 C328.853292,384.973647 328.145243,384.906402 327.679972,384.463286 C327.214701,384.02017 327.113019,383.316241 327.43387,382.75957 L328.56775,380.79978 C328.898857,380.315422 328.91562,379.682046 328.610598,379.180852 C328.305576,378.679657 327.735305,378.403545 327.15297,378.4751 C325.894505,378.634242 324.724727,379.207474 323.82786,380.10452 C323.48629,380.44702 322.4476,381.48664 321.8886,385.44822 C321.72948,386.586124 321.62918,387.73148 321.5881,388.87972 C321.57795,389.275604 321.725482,389.659306 321.998239,389.946413 C322.270996,390.233521 322.646636,390.400516 323.04252,390.41066 C323.055427,390.410993 323.068343,390.41115 323.08127,390.41115 L323.1186,390.41115 C324.267724,390.370462 325.414,390.270787 326.5529,390.11252 C330.51634,389.55258 331.55596,388.51295 331.89753,388.17139 C332.798741,387.274137 333.37059,386.098872 333.52042,384.83602 C333.62033,384.017901 333.03847,383.273553 332.22043,383.173 Z" id="Path" fill="#FFFFFF"></path>
                <path d="M98.82477,404.53987 L95.41946,404.53987 C94.0089247,404.53987 92.86546,403.396405 92.86546,401.98587 L92.86546,386.66195 C92.86546,385.251415 94.0089247,384.10795 95.41946,384.10795 L98.82477,384.10795 C100.235305,384.10795 101.37877,385.251415 101.37877,386.66195 L101.37877,401.98587 C101.37877,403.396405 100.235305,404.53987 98.82477,404.53987 Z" id="Path" fill="#FFFFFF"></path>
                <path d="M122.66195,404.53987 L119.25664,404.53987 C117.846105,404.53987 116.70264,403.396405 116.70264,401.98587 L116.70264,376.44602 C116.70264,375.035485 117.846105,373.89202 119.25664,373.89202 L122.66195,373.89202 C124.072485,373.89202 125.21595,375.035485 125.21595,376.44602 L125.21595,401.98587 C125.21595,403.396405 124.072485,404.53987 122.66195,404.53987 Z" id="Path" fill="#FFFFFF"></path>
                <path d="M134.58054,404.53987 L131.17523,404.53987 C129.764695,404.53987 128.62123,403.396405 128.62123,401.98587 L128.62123,364.52743 C128.62123,363.116895 129.764695,361.97343 131.17523,361.97343 L134.58054,361.97343 C135.991075,361.97343 137.13454,363.116895 137.13454,364.52743 L137.13454,401.98587 C137.13454,403.396405 135.991075,404.53987 134.58054,404.53987 Z" id="Path" fill="#FFFFFF"></path>
                <path d="M110.74336,404.53987 L107.3381,404.53987 C105.927565,404.53987 104.7841,403.396405 104.7841,401.98587 L104.7841,356.01415 C104.7841,354.603615 105.927565,353.46015 107.3381,353.46015 L110.74341,353.46015 C112.153945,353.46015 113.29741,354.603615 113.29741,356.01415 L113.29741,401.98587 C113.29741,402.663242 113.028322,403.312869 112.549343,403.791838 C112.070364,404.270808 111.420732,404.53987 110.74336,404.53987 Z" id="Path" fill="#FFFFFF"></path>
                <path d="M400.25156,173.76911 L397.81865,171.33527 C396.658528,170.174846 394.778825,170.16985 393.61255,171.32409 L376.69774,186.93439 C376.076847,187.48405 375.696987,188.255813 375.64015,189.0831 C375.603901,189.913601 375.914803,190.721744 376.49833,191.31381 L380.13233,194.98786 L380.13885,194.99438 C380.700415,195.554108 381.460219,195.869549 382.25309,195.87213 L382.36309,195.87213 C383.192378,195.825515 383.9691,195.451073 384.52209,194.83132 L400.24131,177.99387 C401.410759,176.834463 401.418903,174.946553 400.2595,173.7771 L400.25156,173.76911 Z" id="Path" fill="#FFFFFF"></path>
                <path d="M419.80427,168.85018 L419.77539,168.8213 L416.58214,165.66066 C416.204341,165.284111 415.691756,165.074113 415.15836,165.07736 C414.730478,165.077759 414.313557,165.212712 413.9666,165.46312 C413.9666,165.42305 413.97219,165.38392 413.97498,165.34944 C414.103848,164.533267 413.931646,163.698076 413.49045,162.99944 C412.78698,162.051237 412.014609,161.156147 411.17961,160.32144 L411.17216,160.31398 C408.837848,158.074388 406.094502,156.304755 403.09166,155.10154 C401.522294,154.457443 399.842059,154.126655 398.14566,154.12782 C395.949774,154.107952 393.81586,154.855398 392.11231,156.24112 C391.627429,156.704247 391.185218,157.210077 390.79103,157.75249 C390.404287,158.286293 390.414001,159.010711 390.814919,159.533952 C391.215837,160.057192 391.912782,160.255039 392.52882,160.02049 C392.790142,159.922799 393.057121,159.840963 393.3283,159.77543 C393.893047,159.655987 394.472241,159.619884 395.04745,159.66827 C396.239981,159.792713 397.382822,160.21187 398.37302,160.88798 C399.497911,161.835316 400.125219,163.246931 400.07447,164.71671 C399.660686,165.89524 399.028454,166.98521 398.21089,167.92953 C397.760119,168.523753 397.817837,169.35966 398.346,169.88629 L401.55229,173.09259 C402.111748,173.65338 403.012077,173.678753 403.60223,173.15036 C404.50887,172.34063 405.88978,171.11998 406.37245,170.82088 C406.785112,170.544822 407.252206,170.360527 407.74219,170.28044 C408.107307,170.244634 408.474598,170.322062 408.79419,170.50221 C408.7974,170.534462 408.786918,170.56658 408.7653,170.59073 L408.59572,170.75193 L408.56772,170.77802 C407.783186,171.559649 407.780831,172.829276 408.56246,173.61381 L408.57238,173.62371 L411.7647,176.78341 C412.142588,177.159708 412.655191,177.36938 413.18847,177.36587 C413.71866,177.366597 414.227957,177.159131 414.60666,176.78807 L419.7781,171.67999 C419.79581,171.66229 419.81351,171.64365 419.83028,171.62499 C420.549964,170.8361 420.538616,169.62544 419.80427,168.85018 Z" id="Path" fill="#FFFFFF"></path>
                <path d="M54.46236,172.201592 C53.7078188,172.201592 53.0275858,171.747029 52.7388387,171.049922 C52.4500917,170.352815 52.6096914,169.550414 53.14322,169.01686 L57.42073,164.73923 L53.14322,160.4616 C52.4146763,159.733056 52.4146763,158.551854 53.14322,157.82331 C53.8717637,157.094766 55.0529663,157.094766 55.78151,157.82331 L61.37828,163.42008 C61.7281764,163.769919 61.924751,164.244437 61.924751,164.739225 C61.924751,165.234013 61.7281764,165.708531 61.37828,166.05837 L55.78151,171.65514 C55.4320168,172.005554 54.9572693,172.202216 54.46236,172.201592 L54.46236,172.201592 Z" id="Path" fill="#FFFFFF"></path>
                <path d="M24.61292,177.79836 C24.1181299,177.79836 23.6436005,177.601828 23.2937311,177.251959 C22.9438616,176.902089 22.74733,176.42756 22.74733,175.93277 L22.74733,174.06718 C22.7777814,167.899975 27.7681406,162.907144 33.93533,162.87364 L58.19358,162.87364 C58.8600912,162.87364 59.475973,163.229219 59.8092286,163.806435 C60.1424842,164.383651 60.1424842,165.094809 59.8092286,165.672025 C59.475973,166.249241 58.8600912,166.60482 58.19358,166.60482 L33.94087,166.60482 C29.8274994,166.629225 26.4998404,169.959372 26.47851,174.07276 L26.47851,175.93276 C26.4785286,176.427552 26.2819822,176.902084 25.9321125,177.251955 C25.5822427,177.601827 25.1077118,177.79836 24.61292,177.79836 L24.61292,177.79836 Z" id="Path" fill="#FFFFFF"></path>
                <path d="M39.53764,192.723082 C39.0427358,192.723704 38.5679931,192.527047 38.2185,192.17664 L32.62173,186.57986 C32.2718293,186.230025 32.0752515,185.755508 32.0752515,185.26072 C32.0752515,184.765932 32.2718293,184.291415 32.62173,183.94158 L38.2185,178.34481 C38.9472364,177.617407 40.1275036,177.617947 40.8555748,178.346015 C41.583646,179.074084 41.5841899,180.254351 40.85679,180.98309 L36.57927,185.26072 L40.85679,189.53835 C41.3903198,190.071905 41.5499189,190.874309 41.2611693,191.571417 C40.9724198,192.268524 40.2921831,192.723082 39.53764,192.723082 L39.53764,192.723082 Z" id="Path" fill="#FFFFFF"></path>
                <path d="M35.80646,187.12632 C34.7761231,187.12632 33.94087,186.291057 33.94087,185.26072 C33.94087,184.230383 34.7761231,183.39513 35.80646,183.39513 L60.0591,183.39513 C64.1724706,183.370725 67.5001296,180.040578 67.52146,175.92719 L67.52146,174.06719 C67.52146,173.036853 68.3567131,172.2016 69.38705,172.2016 C70.4173869,172.2016 71.25264,173.036853 71.25264,174.06719 L71.25264,175.93278 C71.2221886,182.099985 66.2318294,187.092816 60.06464,187.12632 L35.80646,187.12632 Z" id="Path" fill="#FFFFFF"></path>
            </g>
        </g>
    </g>
</svg>