<svg xmlns="http://www.w3.org/2000/svg" xmlns:xlink="http://www.w3.org/1999/xlink" width="500.05" height="133.64" viewBox="0 0 500.05 133.64">
    <defs>
        <path id="e8luhbh15a" d="M0 133.64L500.05 133.64 500.05 0 0 0z"/>
        <path id="29h9sx7cuc" d="M0 0v133.64h52.9c41.67 0 70.72-26.45 70.72-66.92C123.62 26.65 94.57 0 52.7 0H0z"/>
        <path id="5qppr6zc9e" d="M0 0v133.64h52.9c41.67 0 70.72-26.45 70.72-66.92C123.62 26.65 94.57 0 52.7 0H0z"/>
        <path id="ejc9u5vjeg" d="M0 0v133.64h52.9c41.67 0 70.72-26.45 70.72-66.92C123.62 26.65 94.57 0 52.7 0H0z"/>
        <path id="fl4beafc3i" d="M0 0v133.64h52.9c41.67 0 70.72-26.45 70.72-66.92C123.62 26.65 94.57 0 52.7 0H0z"/>
    </defs>
    <g fill="none" fill-rule="evenodd">
        <g>
            <g>
                <path fill="#000" d="M301.73 112.51l5.67-9c3.87 4.18 9 5.86 15 5.86s13.32-2.58 13.32-12.32v-4.67c-3.521 4.684-9.04 7.44-14.9 7.44-11.92 0-21.16-8.34-21.16-24.34 0-15.7 9-24.45 21.16-24.45 5.856-.061 11.392 2.668 14.91 7.35v-6.16h12.62v44.82c0 18.19-14.11 22.66-25.94 22.66-8.15 0-14.61-1.89-20.67-7.16m33.99-29.34V67.6c-2.632-3.312-6.601-5.28-10.83-5.37-7.26 0-12.22 5-12.22 13.22s5 13.21 12.22 13.21c4.241-.123 8.209-2.123 10.83-5.46M357.79 76.14c0-13.91 10.34-25.14 24.85-25.14 14.51 0 24 10.73 24 26.34v3H371c.89 5.86 5.66 10.73 13.81 10.73 4.08 0 9.64-1.69 12.72-4.67l5.67 8.35c-4.78 4.37-12.33 6.65-19.78 6.65-14.61 0-25.64-9.83-25.64-25.24m24.86-14.82c-7.86 0-11.23 5.46-11.73 10.23h23.65c-.4-4.57-3.58-10.23-11.92-10.23M448.22 100.19v-29c0-6.65-3.47-8.94-8.84-8.94-4.306.077-8.337 2.131-10.93 5.57v32.4h-12.62v-48h12.62v6.15c4.298-4.725 10.403-7.398 16.79-7.35 10.63 0 15.7 6 15.7 15.31v33.88l-12.72-.02zM156.24 100.24V33.91h26.13c20.77 0 35.18 13.22 35.18 33.09 0 20.07-14.41 33.19-35.08 33.19l-26.23.05zM203.16 67c0-11.63-7.15-20.67-20.67-20.67h-12.12v41.49h12c13.12 0 20.77-9.44 20.77-20.77l.02-.05zM226.12 39.48c0-4.142 3.358-7.5 7.5-7.5 4.142 0 7.5 3.358 7.5 7.5 0 4.142-3.358 7.5-7.5 7.5-4.142 0-7.5-3.358-7.5-7.5zm1.19 60.72h12.62v-48h-12.62v48z"/>
                <mask id="yv72z0pbxb" fill="#fff">
                    <use xlink:href="#e8luhbh15a"/>
                </mask>
                <path fill="#000" d="M252.45 100.19L265.07 100.19 265.07 33.91 252.45 33.91zM276.4 39.48c.214-4.142 3.745-7.327 7.887-7.113 3.843.199 6.914 3.27 7.113 7.113.214 4.142-2.97 7.673-7.113 7.887-4.142.214-7.673-2.97-7.887-7.112-.013-.258-.013-.517 0-.775zm1.19 60.72h12.62v-48h-12.62v48zM476 88.17v-25h-8v-11h8V39.08h12.62V52.2h9.74v11h-9.74v21.62c0 3.08 1.59 5.37 4.37 5.37 1.597.069 3.161-.467 4.38-1.5l2.68 9.64c-1.89 1.69-5.27 3.08-10.53 3.08-8.85 0-13.52-4.57-13.52-13.21" mask="url(#yv72z0pbxb)"/>
            </g>
            <g>
                <g>
                    <mask id="r5i29t7chd" fill="#fff">
                        <use xlink:href="#29h9sx7cuc"/>
                    </mask>
                    <path fill="#D82630" d="M0 0L84.24 45.31 0 133.64z" mask="url(#r5i29t7chd)"/>
                </g>
                <g>
                    <mask id="17h5q6auhf" fill="#fff">
                        <use xlink:href="#5qppr6zc9e"/>
                    </mask>
                    <path fill="#F03834" d="M133.64 0L84.24 45.31 0 0z" mask="url(#17h5q6auhf)"/>
                </g>
                <g>
                    <mask id="zi4slk3d6h" fill="#fff">
                        <use xlink:href="#ejc9u5vjeg"/>
                    </mask>
                    <path fill="#9D1C20" d="M84.24 45.31L133.64 133.64 0 133.64z" mask="url(#zi4slk3d6h)"/>
                </g>
                <g>
                    <mask id="297h7ekzfj" fill="#fff">
                        <use xlink:href="#fl4beafc3i"/>
                    </mask>
                    <path fill="#B82E34" d="M133.64 0L84.24 45.31 133.64 133.64z" mask="url(#297h7ekzfj)"/>
                </g>
            </g>
        </g>
    </g>
</svg>
