<?xml version="1.0" encoding="UTF-8"?>
<svg width="787px" height="573px" viewBox="0 0 787 573" version="1.1" xmlns="http://www.w3.org/2000/svg" xmlns:xlink="http://www.w3.org/1999/xlink">
    <title>Group 5</title>
    <defs>
        <linearGradient x1="49.999994%" y1="100.000038%" x2="49.999994%" y2="4.41244786e-06%" id="linearGradient-1">
            <stop stop-color="#F8E890" offset="0%"></stop>
            <stop stop-color="#FFE246" offset="49.9935977%"></stop>
            <stop stop-color="#4D98DF" offset="56.1497828%"></stop>
            <stop stop-color="#3F8DD8" offset="62.0627663%"></stop>
            <stop stop-color="#0485FF" offset="100%"></stop>
        </linearGradient>
        <linearGradient x1="108.701243%" y1="50%" x2="0%" y2="50%" id="linearGradient-2">
            <stop stop-color="#FF0000" offset="0.281700721%"></stop>
            <stop stop-color="#FF0000" offset="28.8565256%"></stop>
            <stop stop-color="#FFFFFF" offset="35.0645265%"></stop>
            <stop stop-color="#FFFFFF" offset="41.3619462%"></stop>
            <stop stop-color="#FFFFFF" offset="62.7243362%"></stop>
            <stop stop-color="#FFFFFF" offset="69.291719%"></stop>
            <stop stop-color="#FF0000" offset="76.2219622%"></stop>
            <stop stop-color="#FF0000" offset="100%"></stop>
        </linearGradient>
    </defs>
    <g id="Page-1" stroke="none" stroke-width="1" fill="none" fill-rule="evenodd">
        <g id="Group-5" transform="translate(-0.000030, -0.000050)" fill-rule="nonzero">
            <g id="undraw_programming_re_kg9v">
                <circle id="Oval" fill="#F2F2F2" cx="458.32139" cy="74.18167" r="26.70075"></circle>
                <path d="M665.44753,497.15199 C705.13523,466.9231 724.09105,416.12653 712.22388,367.66965 C711.929007,366.46565 711.617783,365.264383 711.29021,364.06585 C703.42279,335.30242 683.95854,307.96527 655.59021,298.77456 C631.7705,291.05762 605.77059,296.99182 580.92085,293.92307 C532.13949,287.8989 494.32028,248.42907 467.7097,207.10374 C441.09906,165.77828 420.64788,119.52043 385.28813,85.37961 C327.00334,29.10425 231.92621,16.98812 159.66142,53.61917 C87.39673,90.25034 41.36487,171.51954 43.328,252.51446 C45.29122,333.50946 93.37432,410.94622 163.20292,452.03146 C188.85514,467.12446 218.5243,477.81668 248.05118,474.07523 C273.67129,470.82882 296.95026,457.06259 322.44979,452.97564 C362.54094,446.54996 402.37666,464.67648 437.05247,485.79939 C471.72818,506.92227 505.22254,531.95927 544.62683,541.75181 C582.88831,551.26031 630.29051,523.93001 665.44753,497.15199 Z" id="Path" fill="#F2F2F2"></path>
                <path d="M608.426,55.32 C607.55594,54.74 606.676,54.19 605.80594,53.63 C580.656947,37.545767 553.701317,24.4791169 525.49594,14.7 L518.95594,104.92 L477.49594,104.92 L477.49594,1.53 C474.88594,0.99 472.25594,0.48 469.62594,-2.84217094e-14 L469.62594,104.92 L420.35587,104.92 C363.873768,104.92 318.085972,59.1322216 318.08595,2.65012 L318.08595,2.65002 C315.44595,3.22002 312.82595,3.83002 310.20595,4.48002 L310.20595,104.92002 L270.07595,104.92002 L263.84595,18.89002 C234.86062,30.0063157 207.343136,44.6247695 181.90595,62.42002 C181.46595,62.72002 181.02595,63.03002 180.59595,63.33002 C178.38595,64.88002 176.20595,66.46002 174.03595,68.06002 L174.03595,412.25002 L292.30595,412.25002 L290.21595,383.30002 L278.71595,224.35002 L510.30595,224.35002 L498.80595,383.30002 L496.71595,412.25002 L613.67595,412.25002 L613.67595,58.80002 C611.935923,57.6200467 610.18594,56.46004 608.426,55.32 Z M310.206,198.1 L276.816,198.1 L270.646,112.8 L310.206,112.8 L310.206,198.1 Z M469.626,198.1 L413.546,198.1 L413.546,196.41 C413.546069,194.769208 412.893612,193.195744 411.732459,192.036467 C410.571306,190.87719 408.99679,190.227279 407.356,190.23 L382.976,190.23 C381.336764,190.229355 379.764483,190.880253 378.605368,192.039368 C377.446253,193.198483 376.795355,194.770764 376.796,196.41 L376.796,198.1 L318.086,198.1 L318.086,112.8 L469.626,112.8 L469.626,198.1 Z M477.496,198.1 L477.496,112.8 L518.386,112.8 L512.216,198.1 L477.496,198.1 Z" id="Shape" fill="#3F3D56"></path>
                <path d="M0,434.29085 C8.68725284,444.584345 18.0834916,454.257927 28.12,463.24085 L758.7,464.24085 C768.736508,455.257927 778.132747,445.584345 786.82,435.29085 L0,434.29085 Z" id="Path" fill="#3F3D56"></path>
                <path d="M495.42993,341.59137 L495.42993,427.29537 C495.431728,429.569521 497.274839,431.412637 499.54899,431.41444 L626.55348,431.41444 C628.827637,431.412648 630.670758,429.569527 630.67255,427.29537 L630.67255,341.59137 C630.667148,339.319449 628.825406,337.479741 626.55348,337.47685 L499.549,337.47685 C497.277077,337.479747 495.435338,339.319451 495.42993,341.59137 L495.42993,341.59137 Z" id="Path" fill="#3F3D56"></path>
                <path d="M498.40939,342.65773 L498.40939,426.23812 C498.411493,427.453053 499.395867,428.437427 500.6108,428.43953 L625.49626,428.43953 C626.711195,428.437433 627.695573,427.453055 627.69767,426.23812 L627.69767,342.65773 C627.69767,341.441228 626.712759,340.454377 625.49626,340.45173 L500.6108,340.45173 C499.394305,340.454388 498.40939,341.441232 498.40939,342.65773 L498.40939,342.65773 Z" id="Path" fill="#0D86FA"></path>
                <path d="M492.77376,444.00992 C493.245132,444.600969 493.961234,444.943585 494.71722,444.939792 L630.70917,444.939792 C631.462353,444.938818 632.17505,444.598682 632.649511,444.013727 C633.123973,443.428773 633.309726,442.661228 633.15523,441.92406 L631.04423,431.89684 C630.866461,431.066012 630.279978,430.381765 629.48612,430.079 C629.203232,429.968014 628.902001,429.911194 628.59812,429.911499 L496.81985,429.911499 C496.515969,429.911189 496.214737,429.968009 495.93185,430.079 C495.137967,430.381729 494.55147,431.065992 494.37374,431.89684 L492.26274,441.92406 C492.110633,442.660818 492.298319,443.426906 492.77376,444.00992 L492.77376,444.00992 Z" id="Path" fill="#2F2E41"></path>
                <rect id="Rectangle" fill="#3F3D56" transform="translate(625.538035, 432.973895) rotate(-180.000000) translate(-625.538035, -432.973895) " x="623.44379" y="431.71735" width="4.18849" height="2.51309" rx="0.48819"></rect>
                <rect id="Rectangle" fill="#3F3D56" transform="translate(617.161055, 432.973895) rotate(-180.000000) translate(-617.161055, -432.973895) " x="615.06681" y="431.71735" width="4.18849" height="2.51309" rx="0.48819"></rect>
                <rect id="Rectangle" fill="#3F3D56" transform="translate(608.784075, 432.973895) rotate(-180.000000) translate(-608.784075, -432.973895) " x="606.68983" y="431.71735" width="4.18849" height="2.51309" rx="0.48819"></rect>
                <rect id="Rectangle" fill="#3F3D56" transform="translate(600.407095, 432.973895) rotate(-180.000000) translate(-600.407095, -432.973895) " x="598.31285" y="431.71735" width="4.18849" height="2.51309" rx="0.48819"></rect>
                <rect id="Rectangle" fill="#3F3D56" transform="translate(592.030105, 432.973895) rotate(-180.000000) translate(-592.030105, -432.973895) " x="589.93586" y="431.71735" width="4.18849" height="2.51309" rx="0.48819"></rect>
                <rect id="Rectangle" fill="#3F3D56" transform="translate(583.653125, 432.973895) rotate(-180.000000) translate(-583.653125, -432.973895) " x="581.55888" y="431.71735" width="4.18849" height="2.51309" rx="0.48819"></rect>
                <rect id="Rectangle" fill="#3F3D56" transform="translate(575.276145, 432.973895) rotate(-180.000000) translate(-575.276145, -432.973895) " x="573.1819" y="431.71735" width="4.18849" height="2.51309" rx="0.48819"></rect>
                <rect id="Rectangle" fill="#3F3D56" transform="translate(566.899165, 432.973895) rotate(-180.000000) translate(-566.899165, -432.973895) " x="564.80492" y="431.71735" width="4.18849" height="2.51309" rx="0.48819"></rect>
                <rect id="Rectangle" fill="#3F3D56" transform="translate(558.522185, 432.973895) rotate(-180.000000) translate(-558.522185, -432.973895) " x="556.42794" y="431.71735" width="4.18849" height="2.51309" rx="0.48819"></rect>
                <rect id="Rectangle" fill="#3F3D56" transform="translate(550.145205, 432.973895) rotate(-180.000000) translate(-550.145205, -432.973895) " x="548.05096" y="431.71735" width="4.18849" height="2.51309" rx="0.48819"></rect>
                <rect id="Rectangle" fill="#3F3D56" transform="translate(541.768215, 432.973895) rotate(-180.000000) translate(-541.768215, -432.973895) " x="539.67397" y="431.71735" width="4.18849" height="2.51309" rx="0.48819"></rect>
                <rect id="Rectangle" fill="#3F3D56" transform="translate(533.391235, 432.973895) rotate(-180.000000) translate(-533.391235, -432.973895) " x="531.29699" y="431.71735" width="4.18849" height="2.51309" rx="0.48819"></rect>
                <rect id="Rectangle" fill="#3F3D56" transform="translate(525.014245, 432.973895) rotate(-180.000000) translate(-525.014245, -432.973895) " x="522.92" y="431.71735" width="4.18849" height="2.51309" rx="0.48819"></rect>
                <rect id="Rectangle" fill="#3F3D56" transform="translate(516.637275, 432.973895) rotate(-180.000000) translate(-516.637275, -432.973895) " x="514.54303" y="431.71735" width="4.18849" height="2.51309" rx="0.48819"></rect>
                <rect id="Rectangle" fill="#3F3D56" transform="translate(508.260295, 432.973895) rotate(-180.000000) translate(-508.260295, -432.973895) " x="506.16605" y="431.71735" width="4.18849" height="2.51309" rx="0.48819"></rect>
                <rect id="Rectangle" fill="#3F3D56" transform="translate(499.883305, 432.973895) rotate(-180.000000) translate(-499.883305, -432.973895) " x="497.78906" y="431.71735" width="4.18849" height="2.51309" rx="0.48819"></rect>
                <rect id="Rectangle" fill="#3F3D56" transform="translate(625.637025, 437.162385) rotate(-180.000000) translate(-625.637025, -437.162385) " x="623.54278" y="435.90584" width="4.18849" height="2.51309" rx="0.48819"></rect>
                <rect id="Rectangle" fill="#3F3D56" transform="translate(617.260045, 437.162385) rotate(-180.000000) translate(-617.260045, -437.162385) " x="615.1658" y="435.90584" width="4.18849" height="2.51309" rx="0.48819"></rect>
                <rect id="Rectangle" fill="#3F3D56" transform="translate(608.883055, 437.162385) rotate(-180.000000) translate(-608.883055, -437.162385) " x="606.78881" y="435.90584" width="4.18849" height="2.51309" rx="0.48819"></rect>
                <rect id="Rectangle" fill="#3F3D56" transform="translate(600.506075, 437.162385) rotate(-180.000000) translate(-600.506075, -437.162385) " x="598.41183" y="435.90584" width="4.18849" height="2.51309" rx="0.48819"></rect>
                <rect id="Rectangle" fill="#3F3D56" transform="translate(592.129095, 437.162385) rotate(-180.000000) translate(-592.129095, -437.162385) " x="590.03485" y="435.90584" width="4.18849" height="2.51309" rx="0.48819"></rect>
                <rect id="Rectangle" fill="#3F3D56" transform="translate(583.752115, 437.162385) rotate(-180.000000) translate(-583.752115, -437.162385) " x="581.65787" y="435.90584" width="4.18849" height="2.51309" rx="0.48819"></rect>
                <rect id="Rectangle" fill="#3F3D56" transform="translate(575.375135, 437.162385) rotate(-180.000000) translate(-575.375135, -437.162385) " x="573.28089" y="435.90584" width="4.18849" height="2.51309" rx="0.48819"></rect>
                <rect id="Rectangle" fill="#3F3D56" transform="translate(566.998155, 437.162385) rotate(-180.000000) translate(-566.998155, -437.162385) " x="564.90391" y="435.90584" width="4.18849" height="2.51309" rx="0.48819"></rect>
                <rect id="Rectangle" fill="#3F3D56" transform="translate(558.621165, 437.162385) rotate(-180.000000) translate(-558.621165, -437.162385) " x="556.52692" y="435.90584" width="4.18849" height="2.51309" rx="0.48819"></rect>
                <rect id="Rectangle" fill="#3F3D56" transform="translate(550.244185, 437.162385) rotate(-180.000000) translate(-550.244185, -437.162385) " x="548.14994" y="435.90584" width="4.18849" height="2.51309" rx="0.48819"></rect>
                <rect id="Rectangle" fill="#3F3D56" transform="translate(541.867205, 437.162385) rotate(-180.000000) translate(-541.867205, -437.162385) " x="539.77296" y="435.90584" width="4.18849" height="2.51309" rx="0.48819"></rect>
                <rect id="Rectangle" fill="#3F3D56" transform="translate(533.490225, 437.162385) rotate(-180.000000) translate(-533.490225, -437.162385) " x="531.39598" y="435.90584" width="4.18849" height="2.51309" rx="0.48819"></rect>
                <rect id="Rectangle" fill="#3F3D56" transform="translate(525.113245, 437.162385) rotate(-180.000000) translate(-525.113245, -437.162385) " x="523.019" y="435.90584" width="4.18849" height="2.51309" rx="0.48819"></rect>
                <rect id="Rectangle" fill="#3F3D56" transform="translate(516.736255, 437.162385) rotate(-180.000000) translate(-516.736255, -437.162385) " x="514.64201" y="435.90584" width="4.18849" height="2.51309" rx="0.48819"></rect>
                <rect id="Rectangle" fill="#3F3D56" transform="translate(508.359275, 437.162385) rotate(-180.000000) translate(-508.359275, -437.162385) " x="506.26503" y="435.90584" width="4.18849" height="2.51309" rx="0.48819"></rect>
                <rect id="Rectangle" fill="#3F3D56" transform="translate(499.982295, 437.162385) rotate(-180.000000) translate(-499.982295, -437.162385) " x="497.88805" y="435.90584" width="4.18849" height="2.51309" rx="0.48819"></rect>
                <rect id="Rectangle" fill="#3F3D56" transform="translate(570.767795, 442.188575) rotate(-180.000000) translate(-570.767795, -442.188575) " x="554.01383" y="440.93203" width="33.50793" height="2.51309" rx="0.48819"></rect>
                <rect id="Rectangle" fill="#FFFFFF" x="515.63109" y="358.73712" width="5.96585" height="3.12216" rx="1.56108"></rect>
                <rect id="Rectangle" fill="#FFFFFF" x="548.1541" y="358.73712" width="5.96585" height="3.12216" rx="1.56108"></rect>
                <rect id="Rectangle" fill="#FFFFFF" x="557.36895" y="358.73712" width="5.96585" height="3.12216" rx="1.56108"></rect>
                <rect id="Rectangle" fill="#FFFFFF" x="524.47745" y="358.47685" width="20.79613" height="3.12216" rx="1.56108"></rect>
                <rect id="Rectangle" fill="#FFFFFF" x="567.84147" y="358.47685" width="20.79613" height="3.12216" rx="1.56108"></rect>
                <rect id="Rectangle" fill="#FFFFFF" x="524.30389" y="365.78378" width="5.96585" height="3.12216" rx="1.56108"></rect>
                <rect id="Rectangle" fill="#FFFFFF" x="556.8269" y="365.78378" width="5.96585" height="3.12216" rx="1.56108"></rect>
                <rect id="Rectangle" fill="#FFFFFF" x="566.04175" y="365.78378" width="5.96585" height="3.12216" rx="1.56108"></rect>
                <rect id="Rectangle" fill="#FFFFFF" x="533.15026" y="365.5235" width="20.79613" height="3.12216" rx="1.56108"></rect>
                <rect id="Rectangle" fill="#FFFFFF" x="576.51427" y="365.5235" width="20.79613" height="3.12216" rx="1.56108"></rect>
                <rect id="Rectangle" fill="#FFFFFF" x="532.97669" y="372.83043" width="5.96585" height="3.12216" rx="1.56108"></rect>
                <rect id="Rectangle" fill="#FFFFFF" x="565.4997" y="372.83043" width="5.96585" height="3.12216" rx="1.56108"></rect>
                <rect id="Rectangle" fill="#FFFFFF" x="574.71456" y="372.83043" width="5.96585" height="3.12216" rx="1.56108"></rect>
                <rect id="Rectangle" fill="#FFFFFF" x="541.82306" y="372.57016" width="20.79613" height="3.12216" rx="1.56108"></rect>
                <rect id="Rectangle" fill="#FFFFFF" x="585.18707" y="372.57016" width="20.79613" height="3.12216" rx="1.56108"></rect>
                <rect id="Rectangle" fill="#FFFFFF" x="541.6495" y="379.87708" width="5.96585" height="3.12216" rx="1.56108"></rect>
                <rect id="Rectangle" fill="#FFFFFF" x="574.17251" y="379.87708" width="5.96585" height="3.12216" rx="1.56108"></rect>
                <rect id="Rectangle" fill="#FFFFFF" x="583.38736" y="379.87708" width="5.96585" height="3.12216" rx="1.56108"></rect>
                <rect id="Rectangle" fill="#FFFFFF" x="550.49586" y="379.61681" width="20.79613" height="3.12216" rx="1.56108"></rect>
                <rect id="Rectangle" fill="#FFFFFF" x="548.1541" y="407.89756" width="5.96585" height="3.12216" rx="1.56108"></rect>
                <rect id="Rectangle" fill="#FFFFFF" x="557.36895" y="407.89756" width="5.96585" height="3.12216" rx="1.56108"></rect>
                <rect id="Rectangle" fill="#FFFFFF" x="567.84147" y="408.15784" width="20.79613" height="3.12216" rx="1.56108"></rect>
                <rect id="Rectangle" fill="#FFFFFF" x="515.63109" y="407.89756" width="5.96585" height="3.12216" rx="1.56108"></rect>
                <rect id="Rectangle" fill="#FFFFFF" x="524.47745" y="408.15784" width="20.79613" height="3.12216" rx="1.56108"></rect>
                <rect id="Rectangle" fill="#FFFFFF" x="524.30389" y="400.85091" width="5.96585" height="3.12216" rx="1.56108"></rect>
                <rect id="Rectangle" fill="#FFFFFF" x="556.8269" y="400.85091" width="5.96585" height="3.12216" rx="1.56108"></rect>
                <rect id="Rectangle" fill="#FFFFFF" x="566.04175" y="400.85091" width="5.96585" height="3.12216" rx="1.56108"></rect>
                <rect id="Rectangle" fill="#FFFFFF" x="533.15026" y="401.11118" width="20.79613" height="3.12216" rx="1.56108"></rect>
                <rect id="Rectangle" fill="#FFFFFF" x="532.97669" y="393.80426" width="5.96585" height="3.12216" rx="1.56108"></rect>
                <rect id="Rectangle" fill="#FFFFFF" x="565.4997" y="393.80426" width="5.96585" height="3.12216" rx="1.56108"></rect>
                <rect id="Rectangle" fill="#FFFFFF" x="574.71456" y="393.80426" width="5.96585" height="3.12216" rx="1.56108"></rect>
                <rect id="Rectangle" fill="#FFFFFF" x="541.82306" y="394.06453" width="20.79613" height="3.12216" rx="1.56108"></rect>
                <rect id="Rectangle" fill="#FFFFFF" x="541.6495" y="386.7576" width="5.96585" height="3.12216" rx="1.56108"></rect>
                <rect id="Rectangle" fill="#FFFFFF" x="574.17251" y="386.7576" width="5.96585" height="3.12216" rx="1.56108"></rect>
                <rect id="Rectangle" fill="#FFFFFF" x="583.38736" y="386.7576" width="5.96585" height="3.12216" rx="1.56108"></rect>
                <rect id="Rectangle" fill="#FFFFFF" x="550.49586" y="387.01788" width="20.79613" height="3.12216" rx="1.56108"></rect>
                <path d="M504.91727,490.48165 L491.56773,469.38003 L533.46973,435.9772 L550.76507,416.81613 C555.337854,411.750087 562.260021,409.498556 568.938104,410.905098 C575.616186,412.31164 581.04214,417.16394 583.18307,423.64403 L583.18307,423.64403 C586.423576,433.452422 581.305891,444.064071 571.61292,447.63503 L544.26412,457.71038 L504.91727,490.48165 Z" id="Path" fill="#FFB6B6"></path>
                <path d="M191.69,337.48085 L191.69,440.04085 L263.540005,440.04085 L263.540005,337.48085 C263.542505,335.966598 262.556753,334.627922 261.11,334.18085 C260.777826,334.071136 260.429803,334.017074 260.08,334.020665 L195.16,334.020665 C194.240885,334.019066 193.358757,334.382709 192.707906,335.031683 C192.057055,335.680658 191.690869,336.561734 191.69,337.48085 L191.69,337.48085 Z M219.73,372.72085 C219.769038,368.512584 223.191553,365.12167 227.4,365.12167 C231.608447,365.12167 235.030962,368.512584 235.07,372.72085 L235.07,384.62085 C235.048447,388.841587 231.620792,392.251784 227.4,392.251784 C223.179208,392.251784 219.751553,388.841587 219.73,384.62085 L219.73,372.72085 Z" id="Shape" fill="#2F2E41"></path>
                <path d="M191.47006,436.76092 L191.47006,446.65092 C191.47343,447.717059 192.333952,448.58204 193.40006,448.59092 L261.83006,448.59092 C262.897649,448.58557 263.76006,447.718523 263.76006,446.65092 L263.76006,436.76092 L191.47006,436.76092 Z" id="Path" fill="#3F3D56"></path>
                <path d="M78.66,182.96092 L78.66,370.22084 C78.6639373,375.189771 82.6910691,379.216903 87.66,379.22084 L365.16,379.22084 C370.12894,379.216925 374.156085,375.18978 374.16,370.22084 L374.16,182.96092 C374.148177,177.996883 370.124047,173.977224 365.16,173.97092 L87.66,173.97092 C82.6959619,173.977246 78.6718449,177.996892 78.66,182.96092 Z" id="Path" fill="#3F3D56"></path>
                <path d="M85.17,185.29085 L85.17,367.91085 C85.1745853,370.565438 87.325412,372.716265 89.98,372.72085 L362.85,372.72085 C365.504597,372.716287 367.655437,370.565447 367.66,367.91085 L367.66,185.29085 C367.66,182.632845 365.507999,180.476623 362.85,180.47085 L89.98,180.47085 C87.3220102,180.476645 85.17,182.632854 85.17,185.29085 Z" id="Path" fill="#FFFFFF"></path>
                <path d="M135.81,447.92085 C136.3727,448.626412 137.227543,449.035411 138.13,449.030888 L300.47,449.030888 C301.369115,449.029727 302.219901,448.623689 302.786293,447.925399 C303.352684,447.227108 303.574429,446.310847 303.39,445.43085 L300.87,433.46085 C300.657776,432.469063 299.957661,431.652262 299.01,431.29085 C298.672317,431.15837 298.312741,431.090542 297.95,431.090899 L140.64,431.090899 C140.277259,431.090536 139.917682,431.158364 139.58,431.29085 C138.632312,431.652223 137.932181,432.469042 137.72,433.46085 L135.2,445.43085 C135.018417,446.310352 135.242455,447.224869 135.81,447.92085 Z" id="Path" fill="#2F2E41"></path>
                <path d="M353.99451,205.62758 L98.67115,205.62758 C98.1191659,205.61533 97.678083,205.16435 97.678083,204.61223 C97.678083,204.06011 98.1191659,203.60913 98.67115,203.59688 L353.99451,203.59688 C354.546494,203.60913 354.987577,204.06011 354.987577,204.61223 C354.987577,205.16435 354.546494,205.61533 353.99451,205.62758 L353.99451,205.62758 Z" id="Path" fill="#3F3D56"></path>
                <ellipse id="Oval" fill="#3F3D56" cx="116.05134" cy="192.32968" rx="5.95043" ry="6.08304"></ellipse>
                <ellipse id="Oval" fill="#3F3D56" cx="136.60736" cy="192.32968" rx="5.95043" ry="6.08304"></ellipse>
                <ellipse id="Oval" fill="#3F3D56" cx="157.16339" cy="192.32968" rx="5.95043" ry="6.08304"></ellipse>
                <path d="M341.61637,187.75092 L327.01637,187.75092 C326.416126,187.764908 325.936821,188.255513 325.936821,188.85592 C325.936821,189.456327 326.416126,189.946932 327.01637,189.96092 L341.61637,189.96092 C342.220565,189.952395 342.705888,189.460175 342.705888,188.85592 C342.705888,188.251665 342.220565,187.759445 341.61637,187.75092 Z" id="Path" fill="#3F3D56"></path>
                <path d="M341.61637,191.90092 L327.01637,191.90092 C326.415612,191.914201 325.935529,192.405015 325.935529,193.00592 C325.935529,193.606825 326.415612,194.097639 327.01637,194.11092 L341.61637,194.11092 C342.221459,194.103639 342.708153,193.611052 342.708153,193.00592 C342.708153,192.400788 342.221459,191.908201 341.61637,191.90092 L341.61637,191.90092 Z" id="Path" fill="#3F3D56"></path>
                <path d="M341.61637,196.05086 L327.01637,196.05086 C326.416126,196.064848 325.936821,196.555453 325.936821,197.15586 C325.936821,197.756267 326.416126,198.246872 327.01637,198.26086 L341.61637,198.26086 C342.220565,198.252335 342.705888,197.760115 342.705888,197.15586 C342.705888,196.551605 342.220565,196.059385 341.61637,196.05086 Z" id="Path" fill="#3F3D56"></path>
                <path d="M693.59575,441.1013 C694.499613,443.732972 696.996731,445.482098 699.77885,445.4323 L726.27068,444.75052 C729.076301,444.69587 731.510894,442.80017 732.25153,440.09352 L736.00041,400.00631 C737.330479,400.608858 738.778446,400.906379 740.23834,400.8771 C743.688915,400.790481 746.831167,398.869582 748.48144,395.837987 C750.131713,392.806392 750.039291,389.124673 748.23899,386.179697 C746.438688,383.234721 743.204015,381.473901 739.75344,381.56052 C739.169931,381.55864 738.587895,381.619171 738.01726,381.74108 C736.762346,380.38339 734.991936,379.619513 733.14321,379.637749 L692.3927,380.69037 C692.05466,380.702844 691.718337,380.744601 691.38751,380.81517 C689.579445,381.152219 688.005585,382.254948 687.071412,383.839253 C686.137239,385.423558 685.934099,387.334521 686.51433,389.07981 L693.59575,441.1013 Z M736.7692,397.28446 L739.43684,387.73172 C739.740294,386.628227 739.747317,385.464214 739.4572,384.35714 C739.58664,384.3568 739.70083,384.29545 739.83027,384.29514 C743.638625,384.216391 746.792551,387.234242 746.88173,391.042367 C746.970908,394.850493 743.961707,398.012672 740.15384,398.11228 C738.971341,398.149246 737.801148,397.863039 736.7692,397.28446 L736.7692,397.28446 Z" id="Shape" fill="#2F2E41"></path>
                <path d="M691.38751,380.81515 C692.25569,385.77927 702.0166,389.26902 713.75336,388.66244 C724.54607,388.16518 733.37081,384.37544 734.98757,379.88394 C734.389224,379.706972 733.76702,379.624024 733.14321,379.63806 L692.3927,380.69035 C692.05466,380.702824 691.718337,380.744581 691.38751,380.81515 L691.38751,380.81515 Z" id="Path" fill="#3F3D56"></path>
                <path d="M715.90438,419.07307 C715.958033,419.059494 716.009039,419.037045 716.05529,419.00665 L721.80844,415.24099 C721.949737,415.148876 722.035032,414.991643 722.035032,414.822972 C722.035032,414.654301 721.949987,414.497002 721.80876,414.40478 L715.82898,410.48811 C715.679664,410.389302 715.488895,410.37793 715.328898,410.4583 C715.168901,410.53867 715.064129,410.698498 715.05425,410.877274 C715.04437,411.05605 715.130893,411.22645 715.28106,411.32396 L720.62197,414.82214 L715.50797,418.17008 C715.303489,418.303785 715.225604,418.565701 715.323802,418.789413 C715.422,419.013125 715.667509,419.133087 715.90434,419.07308 L715.90438,419.07307 Z" id="Path" fill="#FFE248"></path>
                <path d="M706.81762,419.49211 C707.015137,419.442108 707.162557,419.277257 707.190267,419.075403 C707.217978,418.873548 707.120435,418.675069 706.9437,418.57369 L701.64064,415.53335 L706.76624,411.72612 C706.909518,411.619655 706.985114,411.444839 706.964551,411.267524 C706.943988,411.09021 706.830391,410.937334 706.666551,410.866484 C706.50271,410.795635 706.313518,410.817575 706.17024,410.92404 L700.43162,415.18669 C700.296157,415.287089 700.220487,415.449053 700.230404,415.617373 C700.24032,415.785694 700.334485,415.937652 700.4808,416.02145 L706.44605,419.44113 C706.55859,419.505722 706.691842,419.524005 706.81762,419.49211 Z" id="Path" fill="#FFE248"></path>
                <path d="M715.33215,422.37308 C715.380533,422.360995 715.426749,422.34148 715.46915,422.31523 C715.582558,422.246389 715.66394,422.135281 715.695363,422.006389 C715.726786,421.877498 715.705671,421.741401 715.63667,421.62809 L707.48119,408.21973 C707.337196,407.984343 707.029799,407.91 706.794155,408.053573 C706.558511,408.197146 706.483619,408.50441 706.62677,408.74031 L714.78225,422.14866 C714.896527,422.335933 715.119472,422.42692 715.33215,422.37308 L715.33215,422.37308 Z" id="Path" fill="#FFE248"></path>
                <path d="M290.71123,376.84592 L290.92798,377.53036 L290.9394,377.55319 L297.46455,397.39119 L304.97082,420.25213 L319.09352,463.21346 L319.2304,469.88692 L319.2304,469.90975 L320.27989,523.59425 L317.37095,530.87235 L320.64495,542.80472 C320.64495,542.80472 319.13913,524.76772 311.06255,535.12588 C306.48807,541.01228 301.13787,547.03549 296.74587,552.6823 C303.14563,555.271873 309.648017,557.61424 316.25303,559.7094 C317.67903,560.16573 319.11637,560.59923 320.55374,561.03273 C320.8617,561.12401 321.1697,561.215267 321.47774,561.3065 C343.372472,567.78144 366.007637,571.419781 388.8286,572.13237 C390.01497,572.16662 391.1786,572.18937 392.30792,572.21223 C392.70724,572.22365 393.09506,572.23507 393.48292,572.23507 C394.76057,572.24649 396.02681,572.25784 397.30446,572.25784 C399.8826,572.25784 402.449327,572.219823 405.00464,572.14379 C423.917871,571.610762 442.720779,569.067751 461.09613,564.55766 C460.97066,556.9716 460.62845,548.10782 460.13793,538.63947 C459.90976,533.99654 454.78773,528.96578 454.4797,524.10611 C454.26295,520.45564 458.86027,517.02192 458.6207,513.31442 C457.06927,490.48767 455.12995,499.25025 453.69257,483.0856 C453.54427,481.49992 453.407383,479.982703 453.28191,478.53395 C452.35791,468.15295 451.71907,461.66195 451.71907,461.66195 L457.8564,422.97857 L467.4959,362.24415 L466.75437,361.02352 L465.92163,360.61286 L415.07763,335.44754 L412.31699,328.37478 C410.671371,324.206143 406.657163,321.456241 402.17556,321.42747 L368.68266,321.290479 C365.15617,321.274688 361.838619,322.961074 359.7732,325.81947 L350.7042,338.37925 L290.71123,376.84592 Z" id="Path" fill="#3F3D56"></path>
                <path d="M326.81653,453.65371 L319.2304,469.88692 L314.0514,480.97514 L305.14201,527.62114 L300.68157,532.35528 L296.86,515.59592 L256.86228,524.47686 C255.55037,517.18735 256.51108,524.72348 255.70111,516.72677 C255.92928,516.4986 256.16879,516.27043 256.40838,516.04226 C257.0472,515.44904 257.58338,514.89008 257.57198,514.35395 C257.11565,486.77021 258.48458,439.82762 269.91509,411.38831 C271.705305,406.744889 274.065765,402.342001 276.94218,398.28091 C277.17035,397.97291 277.3871,397.66485 277.60385,397.35691 C282.87419,389.97611 286.20521,382.70943 290.928,377.5418 L290.928,377.53038 C290.957387,377.506676 290.984159,377.4799 291.00786,377.45051 C291.025027,377.441974 291.040485,377.430366 291.05347,377.41626 L323.49688,360.21354 L324.88865,399.319 L325.88112,427.42751 L326.81653,453.65371 Z" id="Path" fill="#3F3D56"></path>
                <path d="M443.8014,458.26441 L453.2774,478.53941 L456.58482,485.60032 L465.49163,532.24194 L469.93738,536.96458 L473.76777,520.20934 L475.56757,519.84016 L508.02607,513.11773 L517.48665,543.16404 C521.882477,535.839711 520.519487,526.433767 514.22543,520.65848 C513.57937,520.07391 513.04099,519.50475 513.0563,518.96637 C513.59477,486.52327 511.6103,427.28274 493.68897,402.90049 C487.99718,395.16272 484.58217,387.45575 479.61335,382.07164 C479.59795,382.05634 479.59795,382.04094 479.58264,382.04094 L467.4914,362.24282 L466.75304,361.02749 L465.92238,360.61221 L443.8014,458.26441 Z" id="Path" fill="#3F3D56"></path>
                <circle id="a657ec4b-47ce-4d2a-9c58-81a811696ca9" fill="#FFB6B6" cx="386.39653" cy="267.20057" r="44.55826"></circle>
                <path d="M446.62227,236.07683 C445.924446,235.331272 444.953345,234.901677 443.93227,234.88683 L444.60227,233.02683 C445.047521,231.834014 444.815471,230.493826 443.995097,229.52015 C443.174723,228.546475 441.893335,228.09041 440.64227,228.32683 L438.20227,228.79683 L438.43227,227.16683 C438.611736,225.93174 438.126409,224.693576 437.155453,223.90942 C436.184496,223.125265 434.871917,222.911421 433.70227,223.34683 C432.643009,223.763742 431.452015,223.679197 430.46227,223.11683 C429.469174,222.571966 428.766732,221.617066 428.54227,220.50678 L427.69227,216.40678 L427.60227,216.18678 C423.46227,209.28678 415.50227,204.26678 405.76227,202.42678 C397.09222,200.77678 388.20227,201.61678 379.63227,202.40678 C376.23227,202.72678 372.39227,203.08678 369.19227,205.04678 C366.47227,206.72678 364.17227,210.08678 364.64227,213.47678 C356.19227,210.88678 347.13227,216.05678 342.64227,222.57678 C337.32227,230.33678 336.45227,240.05678 336.31227,247.65678 C335.93227,265.63678 339.64227,280.34678 347.31227,291.38678 C347.87227,292.18678 348.01227,293.85678 349.12227,294.41678 L348.89227,294.04678 C350.13227,294.66678 351.39227,295.66678 350.92227,296.73678 C349.57227,299.81678 358.54227,306.62678 364.86227,308.87678 C376.39227,312.98678 391.72227,312.63678 402.50227,311.15678 L402.88227,308.60678 C406.77227,308.07678 409.51227,307.06678 410.28227,305.48678 C411.64232,304.32678 412.80227,303.28678 413.81227,302.32678 L413.82227,302.31678 C413.84227,302.29678 413.88227,302.26678 413.90227,302.24678 C418.77227,297.57678 419.90227,294.91683 420.41227,290.86684 C420.90227,286.89684 420.03227,282.86684 419.14227,279.23684 C437.88227,282.13684 411.76227,259.27684 429.22227,254.85684 C429.422541,254.795119 429.626214,254.745036 429.83227,254.70684 C430.34227,254.58684 430.85227,254.46684 431.34227,254.32684 C433.704271,253.685707 435.965851,252.719824 438.06227,251.45684 C442.94227,248.48684 444.55227,244.54684 447.07227,240.10684 C447.818558,238.8094 447.636359,237.177702 446.62227,236.07683 L446.62227,236.07683 Z" id="Path" fill="#2F2E41"></path>
                <path d="M543.99227,461.43682 C543.98227,463.18682 543.96227,465.63682 543.88227,468.66682 C543.87227,469.08682 543.86227,469.51682 543.85227,469.95682 C543.72227,475.52682 543.59227,480.19682 543.38227,485.38682 C543.37227,485.74682 543.36227,486.09682 543.34227,486.45682 C543.06227,493.69682 542.62227,502.12682 541.86227,515.47682 C540.45227,540.13682 537.99227,518.86682 535.52227,527.51682 C535.40227,527.94682 535.27227,528.45682 535.15227,529.05682 C534.778242,531.233767 534.147161,533.358628 533.27227,535.38682 C531.96227,536.16682 530.61227,536.91682 529.28227,537.66682 C525.49227,539.77682 521.64232,541.80677 517.76232,543.73682 C515.58226,544.81682 513.39232,545.87682 511.19232,546.89682 C510.84232,547.05682 510.50232,547.21682 510.16232,547.36682 C498.896468,552.577759 487.285773,557.0082 475.41232,560.62682 C473.09232,561.32682 470.78232,562.00682 468.44232,562.63682 C466.00232,563.31682 463.56232,563.95682 461.09232,564.55682 C442.717539,569.067813 423.915166,571.612117 405.00232,572.14682 C402.45232,572.22682 399.88232,572.25682 397.30232,572.25682 C396.02232,572.25682 394.76232,572.24682 393.48232,572.23682 C393.09232,572.23682 392.70232,572.22682 392.31232,572.21682 C391.18232,572.18682 390.01232,572.16682 388.83232,572.13682 C366.011256,571.42502 343.3761,567.785246 321.48232,561.30682 L320.55232,561.03682 C319.11232,560.59682 317.68232,560.16682 316.25232,559.70682 C309.65228,557.61682 303.148947,555.27682 296.74232,552.68682 C291.85232,550.71682 287.018987,548.603487 282.24232,546.34682 C282.198719,546.335024 282.157918,546.314624 282.12232,546.28682 C281.12232,545.82682 280.11232,545.34682 279.11232,544.85682 C278.98232,544.78682 278.84232,544.71682 278.70232,544.64682 C274.97228,542.82682 271.28228,540.920153 267.63232,538.92682 C264.56232,531.87677 260.24232,530.52682 257.56232,524.32682 C256.782321,522.48486 256.218556,520.558662 255.88232,518.58682 C255.88232,518.56682 255.87232,518.54682 255.87232,518.51682 C256.15232,522.23682 254.68232,511.91682 255.86232,518.47682 C255.85232,518.35682 255.84232,518.22682 255.83232,518.07682 C255.80232,517.71682 255.76238,517.27682 255.70238,516.72682 C252.27238,483.23682 252.49238,444.93682 251.00238,413.37682 C250.90234,411.33682 250.799007,409.383487 250.69238,407.51682 C250.66238,406.89682 250.62238,406.28682 250.58233,405.68682 C250.65233,405.50682 250.73233,405.31682 250.82233,405.13682 C250.841486,405.084975 250.8649,405.034804 250.89233,404.98682 C250.92182,404.924764 250.95522,404.864643 250.99233,404.80682 C251.01233,404.77682 251.04233,404.73682 251.06233,404.70682 C251.076947,404.672501 251.093645,404.639105 251.11233,404.60682 C251.20233,404.46682 251.30233,404.31682 251.41233,404.17682 C251.46233,404.11682 251.50233,404.06677 251.55233,404.01682 C251.586858,403.965728 251.62712,403.918756 251.67233,403.87682 C251.703013,403.828759 251.74001,403.785035 251.78233,403.74682 C251.82233,403.70682 251.86233,403.65682 251.91233,403.60687 C251.933711,403.575396 251.960856,403.548251 251.99233,403.52687 C252.071419,403.435998 252.158428,403.352336 252.25233,403.27687 C252.609117,402.948582 252.990202,402.647726 253.39233,402.37687 C253.53228,402.28687 253.68233,402.19687 253.82233,402.09687 C254.830116,401.494004 255.89126,400.985191 256.99233,400.57687 C257.37233,400.43687 257.75233,400.30687 258.16233,400.16687 C258.31233,400.12687 258.45233,400.07687 258.60233,400.02687 C258.82233,399.95687 259.04233,399.88687 259.27233,399.83687 C260.41233,399.49687 261.64233,399.20687 262.97233,398.93687 C263.13233,398.90687 263.30233,398.87687 263.47233,398.83687 C263.71233,398.78687 263.96233,398.74687 264.21233,398.70687 C264.55233,398.64687 264.90233,398.58687 265.25233,398.52687 C268.22233,398.05687 271.59233,397.70687 275.31233,397.47687 C275.66233,397.45687 276.01233,397.43687 276.36233,397.41687 C276.77233,397.39687 277.18233,397.37687 277.60233,397.35687 C277.95233,397.33687 278.31233,397.32687 278.67233,397.31687 C279.02233,397.29687 279.38233,397.28687 279.75233,397.27687 C280.76233,397.24687 281.80233,397.21687 282.86233,397.19687 C285.88233,397.13687 289.06233,397.15687 292.40233,397.22687 C293.95233,397.26687 295.53233,397.30687 297.15233,397.37687 C297.26238,397.37687 297.36233,397.38687 297.46233,397.38687 C298.87233,397.43687 300.29233,397.49687 301.75233,397.57687 C302.77233,397.62687 303.80233,397.67687 304.83228,397.73687 C305.80228,397.79687 306.78228,397.85687 307.77228,397.92687 C308.54228,397.96687 309.31228,398.02687 310.09228,398.07687 C310.75228,398.12687 311.41228,398.17687 312.07228,398.21687 L312.97228,398.27687 C313.46228,398.31687 313.95228,398.34687 314.45228,398.39687 C315.55228,398.48687 316.65228,398.57687 317.77228,398.66687 C318.88228,398.76687 320.01228,398.86687 321.14228,398.96687 C322.27228,399.06687 323.41228,399.17687 324.55228,399.28687 C324.67228,399.29687 324.78228,399.30687 324.89228,399.31687 C325.93228,399.42692 326.97228,399.52687 328.02228,399.63687 C328.26228,399.65687 328.51228,399.67687 328.75228,399.70687 C329.75338,399.80745 330.77401,399.92519 331.78428,400.03255 C332.09434,400.066 332.40275,400.09841 332.71372,400.1324 C333.50511,400.21858 334.28526,400.29329 335.08219,400.38686 C336.13219,400.50686 337.20225,400.61686 338.24219,400.75686 C339.05219,400.84686 339.86219,400.93686 340.67219,401.03686 C341.94219,401.18686 343.23219,401.34686 344.52219,401.51686 C345.01219,401.57686 345.50219,401.63686 345.99219,401.70686 C349.67219,402.16686 353.39219,402.67686 357.17219,403.20686 C362.90219,404.01686 368.72219,404.89686 374.58219,405.84686 C380.45225,406.79686 386.355583,407.800193 392.29219,408.85686 C393.79219,409.12686 395.29219,409.39686 396.80219,409.67686 C397.48219,409.8068 398.16219,409.936783 398.84219,410.06681 C400.00219,410.27681 401.16219,410.49681 402.32219,410.71681 C403.48219,410.93681 404.64219,411.15681 405.80219,411.38681 C407.18219,411.65681 408.57219,411.92681 409.95219,412.19681 C419.04219,413.99681 428.08213,415.91681 436.90219,417.92681 C438.35219,418.25676 439.80219,418.59681 441.24219,418.92681 C444.12219,419.59681 446.975523,420.27681 449.80219,420.96681 C450.58219,421.14681 451.35219,421.33681 452.12219,421.52681 C454.04219,422.00681 455.96219,422.48681 457.85219,422.97681 L458.18219,423.06681 C459.57219,423.40681 460.93219,423.75681 462.29219,424.11681 C465.50219,424.95681 468.658857,425.80681 471.76219,426.66681 C473.82219,427.23681 475.858857,427.813477 477.87219,428.39681 C480.88219,429.26681 483.83219,430.14681 486.70219,431.03681 C487.41219,431.25681 488.12219,431.47681 488.82219,431.68681 C490.92219,432.33681 492.99219,432.99681 495.00219,433.65681 C496.60219,434.17681 498.16219,434.70681 499.70219,435.23681 C501.24219,435.76681 502.75219,436.29681 504.23219,436.82681 C505.18219,437.16681 506.12219,437.52681 507.06219,437.86681 C508.41219,438.36681 509.74219,438.86681 511.04219,439.36681 C511.44219,439.51681 511.83219,439.67681 512.22219,439.82681 C512.47219,439.93681 512.71219,440.02681 512.95219,440.12681 C513.42219,440.31681 513.90219,440.49681 514.36219,440.68681 C514.83219,440.86681 515.29219,441.05681 515.75219,441.25681 C516.20219,441.43681 516.66219,441.62681 517.10219,441.81681 C517.55219,441.99681 517.99219,442.18681 518.43219,442.38681 C518.80219,442.53681 519.16219,442.69681 519.51219,442.85681 C520.22219,443.16681 520.93219,443.47681 521.62219,443.79681 C521.96219,443.95681 522.30219,444.10681 522.64219,444.26681 L523.42219,444.62681 C523.53219,444.68681 523.64219,444.73681 523.75219,444.78681 C524.00219,444.90681 524.26219,445.03681 524.51219,445.15681 C525.09214,445.42681 525.66219,445.71681 526.22219,445.98681 C526.97219,446.36681 527.70219,446.74681 528.40219,447.11681 C529.11219,447.49675 529.80219,447.87681 530.46219,448.24675 C530.57219,448.30675 530.67219,448.36681 530.78219,448.42681 C530.93219,448.50676 531.08219,448.59681 531.23219,448.67681 C531.74219,448.96681 532.23219,449.26681 532.72219,449.55675 C533.68219,450.14675 534.59219,450.72675 535.44219,451.30675 C535.63219,451.43675 535.81219,451.56675 536.00219,451.68675 C536.63219,452.13675 537.23219,452.57675 537.79219,453.02675 C537.79219,453.03675 537.79219,453.03675 537.80219,453.03675 C537.99219,453.17675 538.17219,453.32675 538.35219,453.46675 C538.50219,453.60675 538.66219,453.72675 538.81219,453.86675 C539.33219,454.31675 539.81219,454.74669 540.25219,455.18675 C540.399698,455.322552 540.539895,455.466088 540.67219,455.61675 C540.73041,455.664962 540.783978,455.71853 540.83219,455.77675 C541.03219,455.97675 541.21219,456.17675 541.38219,456.37675 C541.408564,456.404256 541.432022,456.434417 541.45219,456.46675 C541.69219,456.74675 541.91219,457.02675 542.12219,457.30675 C542.22219,457.44675 542.33219,457.58675 542.42219,457.72675 C542.54219,457.89675 542.66219,458.07675 542.76219,458.24675 C542.85219,458.38675 542.93219,458.53675 543.01219,458.67681 C543.224415,459.037192 543.405088,459.415246 543.55219,459.80675 C543.664586,460.072194 543.754892,460.346457 543.82219,460.62675 C543.897958,460.892414 543.954793,461.163116 543.99227,461.43682 L543.99227,461.43682 Z" id="Path" fill="#2F2E41"></path>
                <path d="M543.99227,461.43682 C543.98227,463.18682 543.96227,465.63682 543.88227,468.66682 C543.87227,469.08682 543.85227,469.51682 543.84227,469.95682 C543.74227,474.20682 543.59227,479.45682 543.38227,485.38682 C543.37227,485.74682 543.36227,486.09682 543.34227,486.45682 C543.06227,493.69682 542.62227,502.12682 541.86227,515.47682 C540.45227,540.13682 537.99227,518.86682 535.52227,527.51682 C528.66227,523.29682 521.14227,518.87682 513.10227,514.33682 C511.65227,513.51682 510.188937,512.693487 508.71227,511.86682 C492.63227,502.89682 474.67227,493.49676 455.92227,484.18682 C455.18227,483.81682 454.43227,483.44682 453.69227,483.08682 C410.74227,461.85682 363.86227,441.20682 325.88227,427.42682 C318.55227,424.76682 311.55227,422.36682 304.97227,420.25677 C291.11227,415.82677 279.13227,412.72677 269.91227,411.38677 C260.31227,409.98677 253.68227,410.48677 251.00227,413.37677 C250.90223,411.33677 250.798897,409.383437 250.69227,407.51677 C250.65223,406.89677 250.61223,406.28677 250.57227,405.68677 C250.63398,405.52215 250.71418,405.36505 250.79182,405.2066 C250.80293,405.18347 250.81082,405.1596 250.82227,405.13678 C250.841426,405.084935 250.86484,405.034764 250.89227,404.98678 C250.92176,404.924724 250.95516,404.864603 250.99227,404.80678 C251.02479,404.735902 251.065034,404.668829 251.11227,404.60678 C251.20227,404.46678 251.30227,404.31678 251.41227,404.17678 C251.49316,404.071901 251.579968,403.971721 251.67227,403.87673 C251.702953,403.828669 251.73995,403.784945 251.78227,403.74673 C251.82227,403.70673 251.86227,403.65673 251.91227,403.60678 C251.933651,403.575306 251.960796,403.548161 251.99227,403.52678 C252.071359,403.435908 252.158368,403.352246 252.25227,403.27678 C252.609057,402.948492 252.990142,402.647636 253.39227,402.37678 C253.53222,402.28678 253.68227,402.19678 253.82227,402.09678 C254.830056,401.493914 255.8912,400.985101 256.99227,400.57678 C257.37227,400.43678 257.75227,400.30678 258.16227,400.16678 C258.31227,400.12678 258.45227,400.07678 258.60227,400.02678 C258.82227,399.95678 259.04227,399.88678 259.27227,399.83678 C260.41227,399.49678 261.64227,399.20678 262.97227,398.93678 C263.37227,398.85678 263.79227,398.77678 264.21227,398.70678 C264.55227,398.64678 264.90227,398.58678 265.25227,398.52678 C268.22227,398.05678 271.59227,397.70678 275.31227,397.47678 C275.66227,397.45678 276.01227,397.43678 276.36227,397.41678 C276.77227,397.39678 277.18227,397.37678 277.60227,397.35678 C277.95227,397.33678 278.31227,397.32678 278.67227,397.31678 C279.02227,397.29678 279.38227,397.28678 279.75227,397.27678 C280.76227,397.24678 281.80227,397.21678 282.86227,397.19678 C285.88227,397.14678 289.06227,397.16678 292.40227,397.23678 C293.95227,397.26678 295.53227,397.31678 297.15227,397.38678 C297.25227,397.38678 297.36227,397.39678 297.46227,397.39678 C298.87227,397.43678 300.30227,397.50678 301.75227,397.57678 C302.77227,397.62678 303.80227,397.67678 304.83222,397.73678 C305.80222,397.79678 306.78222,397.85678 307.77222,397.92678 C308.54222,397.96678 309.31222,398.02678 310.09222,398.07678 C310.75222,398.12678 311.41222,398.17678 312.07222,398.21678 C312.86222,398.27678 313.65222,398.33678 314.45222,398.39678 C315.55222,398.48678 316.65222,398.57678 317.77222,398.66678 C318.88222,398.76678 320.01222,398.86678 321.14222,398.96678 C322.27222,399.06678 323.41222,399.17678 324.55222,399.28678 C324.67222,399.29678 324.78222,399.30678 324.89222,399.31678 C325.93222,399.42683 326.97222,399.52678 328.02222,399.63678 C333.84222,400.22678 339.83222,400.91678 345.99222,401.70678 C349.67222,402.17678 353.398887,402.680113 357.17222,403.21678 C362.90222,404.02678 368.72222,404.90678 374.58222,405.84678 C380.45228,406.79678 386.355613,407.800113 392.29222,408.85678 C393.79222,409.12678 395.29222,409.39678 396.80222,409.67678 C398.64222,410.01674 400.48222,410.363407 402.32222,410.71678 C403.48222,410.93678 404.64222,411.15678 405.80222,411.38678 C407.18222,411.65678 408.57222,411.92678 409.95222,412.19678 C419.04222,413.99678 428.08216,415.91678 436.90222,417.92678 C438.35222,418.25673 439.80222,418.59678 441.24222,418.92678 C444.12222,419.59678 446.975553,420.27678 449.80222,420.96678 C450.58222,421.15678 451.35222,421.34678 452.12222,421.53678 C454.05222,422.01678 455.96222,422.49678 457.85222,422.97678 L457.85222,422.98678 C457.96222,423.00678 458.07222,423.03678 458.18222,423.06678 C459.56222,423.41678 460.93222,423.76678 462.29222,424.12678 C465.50222,424.96678 468.658887,425.813447 471.76222,426.66678 C473.82222,427.24673 475.86222,427.81678 477.87222,428.39678 C480.88222,429.27678 483.83222,430.15678 486.70222,431.03678 C487.41222,431.25678 488.12222,431.47678 488.82222,431.68678 C490.92222,432.34678 492.98222,433.003447 495.00222,433.65678 C496.60222,434.17678 498.16222,434.70678 499.70222,435.23678 C501.24222,435.76678 502.75222,436.29678 504.23222,436.82678 C505.19222,437.16678 506.13222,437.51678 507.06222,437.85678 C508.42222,438.35678 509.74222,438.85678 511.04222,439.36678 C511.44222,439.51678 511.83222,439.67678 512.22222,439.82678 C512.95222,440.10678 513.66222,440.39678 514.36222,440.68678 C514.83222,440.86678 515.29222,441.05678 515.75222,441.25678 C516.20222,441.43678 516.66222,441.62678 517.10222,441.81678 C517.55222,441.99678 517.99222,442.18678 518.43222,442.38678 C518.80222,442.53678 519.16222,442.69678 519.51222,442.85678 C520.22222,443.16678 520.93222,443.47678 521.62222,443.79678 C521.96222,443.95678 522.30222,444.10678 522.64222,444.26678 L523.42222,444.62678 C523.53222,444.68678 523.64222,444.73678 523.75222,444.78678 C524.60222,445.18678 525.42222,445.58678 526.22222,445.98678 C526.97222,446.36678 527.70222,446.74678 528.40222,447.11678 C529.23222,447.55672 530.02222,447.98678 530.78222,448.42678 C530.93222,448.50673 531.08222,448.59678 531.23222,448.67678 C531.74222,448.96678 532.23222,449.26678 532.72222,449.55672 C533.68222,450.14672 534.59222,450.72672 535.44222,451.30672 C536.28222,451.88672 537.06222,452.45672 537.79222,453.02672 C537.79222,453.03672 537.79222,453.03672 537.80222,453.03672 C538.15222,453.31672 538.49222,453.59672 538.81222,453.86672 C539.33222,454.31672 539.81222,454.74666 540.25222,455.18672 C540.399728,455.322522 540.539925,455.466058 540.67222,455.61672 C540.73044,455.664932 540.784008,455.7185 540.83222,455.77672 C541.04222,456.00672 541.25222,456.23672 541.45228,456.46672 C541.69228,456.74672 541.91228,457.02672 542.12228,457.30672 C542.22228,457.44672 542.33228,457.58672 542.42228,457.72672 C542.54228,457.89672 542.66228,458.07672 542.76228,458.24672 C542.85228,458.38672 542.93228,458.53672 543.01228,458.67678 C543.224505,459.037162 543.405178,459.415216 543.55228,459.80672 C543.661682,460.073279 543.751911,460.347309 543.82228,460.62672 C543.898019,460.892396 543.954824,461.163108 543.99227,461.43682 L543.99227,461.43682 Z" id="Path" fill="#000000" opacity="0.2"></path>
            </g>
            <g id="Group-4" transform="translate(106.000030, 207.000050)">
                <path d="M35.8573841,148.464567 C35.8573841,148.464567 36.023001,145.002183 39.4181667,145.404638" id="Path" fill="#E6E6E6"></path>
                <ellipse id="Oval" fill="#E6E6E6" cx="34.8980646" cy="143.474297" rx="1.69925689" ry="1.69538206"></ellipse>
                <rect id="Rectangle" fill="#E6E6E6" x="34.621572" y="146.329218" width="1" height="3.3499616"></rect>
                <path d="M159.129931,145.832454 C159.129931,145.832454 159.295548,142.37007 162.690713,142.772525" id="Path" fill="#E6E6E6"></path>
                <ellipse id="Oval" fill="#E6E6E6" cx="158.170611" cy="140.842184" rx="1.69925689" ry="1.69538206"></ellipse>
                <rect id="Rectangle" fill="#E6E6E6" x="157.894119" y="143.697105" width="1" height="3.3499616"></rect>
                <path d="M208.665677,159 C149.611789,140.348546 96.0634464,141.342135 61.5409505,145.460195 C24.140151,149.921501 0.407406173,158.905129 0.172142677,158.995327 L0,158.54854 C0.2359638,158.458108 24.0245578,149.453217 61.4840365,144.984888 C83.5184752,142.359711 105.750413,141.792302 127.890559,143.290046 C155.375827,145.146172 182.54104,150.266959 208.810417,158.543869 L208.665677,159 Z" id="Path" fill="#3F3D56"></path>
                <path d="M137.785073,154.446641 C137.785073,154.446641 137.95069,150.984257 141.345856,151.386712" id="Path" fill="#3F3D56"></path>
                <ellipse id="Oval" fill="#6C63FF" cx="136.825754" cy="149.456371" rx="1.69925689" ry="1.69538206"></ellipse>
                <rect id="Rectangle" fill="#3F3D56" x="136.549261" y="152.311292" width="1" height="3.3499616"></rect>
                <path d="M69.3989902,31.9025527 C73.5826278,29.589141 77.8321946,27.1101383 80.7883902,23.3583871 C83.8756864,19.4402433 85.193585,13.579976 82.3324316,9.49451362 C79.929075,6.06271725 75.1432055,4.85606826 71.0665248,5.84784114 C66.9898441,6.83961402 63.5769813,9.66522288 60.926341,12.9107327 C61.7936928,8.92167019 57.5769827,5.06999441 53.5011678,5.423267 C49.4253529,5.7765396 46.1550786,9.33085125 45.0668002,13.2656396 C43.9785219,17.2004279 44.6866171,21.4113105 45.8543679,25.3233478 C47.8206249,31.8827495 51.0340124,38.0032087 55.3191525,43.3506875 C55.9762342,42.1629958 56.7703082,41.0560676 57.6851867,40.0524685 C60.9030247,36.5215156 65.2153526,34.2159644 69.3989902,31.9025527 Z" id="Path" fill="url(#linearGradient-1)"></path>
                <path d="M54.9374225,43.5416808 C49.4626353,37.5191108 45.452823,30.3185765 43.2193549,22.4992129 C42.0714572,18.4373677 41.3990127,13.81918 43.1192882,9.81176695 C44.4498163,6.71228437 47.2856125,3.9079382 50.8009115,3.64831617 C54.5106716,3.37433717 58.628958,6.80181209 57.8342842,10.7210805 C57.7749383,11.0137691 58.1613234,11.322547 58.3901282,11.0439091 C61.3595384,7.4277907 65.4412627,4.09683775 70.3054104,3.77030981 C74.63786,3.47947572 79.1888881,5.63952378 80.4508297,10.0305649 C81.765234,14.604155 79.497446,19.4427414 76.3214392,22.6768518 C72.798305,26.2644405 68.2120603,28.5023417 63.8834095,30.9457056 C59.6243742,33.3497816 55.2925122,36.1258684 52.6728986,40.3754215 C51.4283215,42.3409645 50.6591994,44.5684747 50.4263668,46.8817648 C50.2206503,49.2694787 50.8193424,51.5271159 51.9779053,53.6092462 C53.2084843,55.8208071 54.7302503,57.8369217 55.8415235,60.1204517 C56.9344467,62.3773228 57.7657628,64.7512182 58.3193496,67.1960994 C59.4375183,72.0695002 59.4448946,77.131182 58.3409343,82.0078063 C56.2988766,90.8954243 50.3406204,98.7177234 42.4109819,103.217729 C41.4528213,103.760323 40.4678575,104.254386 39.4598396,104.698037 C39.0691855,104.870404 39.4072281,105.442384 39.7955414,105.271045 C48.2830598,101.470477 54.8500224,94.3808143 57.9794412,85.6397916 C61.3343011,76.1378648 60.048144,65.189695 54.6813729,56.6717979 C53.2767926,54.4425109 51.6542405,52.2806371 51.1917334,49.6247301 C50.7679037,47.1909447 51.2898742,44.6520926 52.3198403,42.431884 C54.5256418,37.6770251 58.8976969,34.5861687 63.3138808,32.0352519 C67.7289662,29.484974 72.4453642,27.2762892 76.1869618,23.7389739 C79.5177668,20.5900219 81.9749892,16.0969218 81.3982248,11.3898956 C81.1601578,9.2388399 80.1564755,7.24439116 78.5695875,5.76902133 C76.9697891,4.36537997 74.9851158,3.47224835 72.871645,3.20486501 C68.156578,2.54163722 63.7368039,4.77360417 60.3761593,7.9286315 C59.5010042,8.75683949 58.6805053,9.64070469 57.9198099,10.5746824 L58.475654,10.8975134 C59.1929515,7.35989895 56.3743895,4.10987388 53.0740668,3.21515896 C49.4849794,2.24215783 45.9271227,4.33555122 43.8589835,7.1735358 C41.2756826,10.7184532 41.0643757,15.2645162 41.8195087,19.4442776 C42.602853,23.7801856 44.2245226,28.0251588 46.1942452,31.9561449 C48.3903308,36.3306246 51.1735447,40.3861846 54.4670994,44.0109339 C54.7550631,44.3281561 55.2242926,43.8577138 54.9374057,43.5417 L54.9374225,43.5416808 Z" id="Path" fill="#3F3D56"></path>
                <g id="Group-2" transform="translate(117.198309, 51.364833)">
                    <polygon id="Path" fill="#9F616A" points="4.19612998 91.4459492 1.84867534 90.9439335 7.92116733 60.5770102 14.5244028 62.7233784"></polygon>
                    <path d="M29.1963109,97.0319694 C29.8462882,97.3279386 30.3907283,95.4936025 30.9389938,96.0311636 C32.472569,97.5347963 36.151511,97.1977447 36.151511,97.1977447 C36.401123,97.1176902 36.6069784,96.9391255 36.7211412,96.7036319 C36.8353039,96.4681383 36.8478103,96.1962687 36.755748,95.9513317 L36.755748,95.9513317 C36.6450793,95.6568886 36.3964178,95.4355321 36.0906446,95.3592618 L34.4596889,94.9524545 L31.8988552,90.4591988 L29.1080007,90.1067877 L29.0375099,90.2218014 C27.9460309,91.9768994 27.6650534,94.115988 28.2663802,96.0924296 C28.4984731,96.8343911 28.8143938,96.8580658 29.1963109,97.0319694 Z" id="Path" fill="#2F2E41"></path>
                    <path d="M0.786428132,95.7247498 C1.37124604,96.1342491 2.24251194,94.4300758 2.68307939,95.0585525 C3.91540434,96.8164903 7.59412814,97.155918 7.59412814,97.155918 C7.85420118,97.1227273 8.08929953,96.9847061 8.24467709,96.7739948 C8.40005465,96.5632834 8.46215051,96.2982721 8.41650472,96.0406727 L8.41650472,96.0406727 C8.36163274,95.7310094 8.15770402,95.468041 7.87105008,95.3373028 L6.34207718,94.6399629 L4.64740583,89.7554389 L1.96810341,88.9000884 L1.87773073,89.0003121 C0.483151316,90.5268374 -0.184911071,92.5786704 0.0442650455,94.6314707 C0.136541981,95.4032612 0.442804709,95.4841412 0.786428132,95.7247498 Z" id="Path" fill="#2F2E41"></path>
                    <path d="M24.1469331,39.7419551 C25.3968855,41.6598081 26.6085107,43.5967655 27.1445665,45.8011072 C28.440674,51.196841 29.3661695,56.6745418 29.9146013,62.1960251 C25.5717622,64.6820268 21.8040352,66.1090602 18.1235247,66.3549785 C17.9523773,66.366354 17.7815057,66.3743987 17.6107372,66.3806894 L16.2690019,58.8233603 L15.1987084,66.2973998 C14.6687396,66.2411875 14.137941,66.1611042 13.6046049,66.053848 C11.2973625,65.5921133 8.94820991,64.6485774 6.43807388,63.1997956 C5.53820297,59.6285027 5.16037649,55.9461981 5.31631049,52.2670667 C5.52254978,47.3469135 6.63760992,43.1344229 7.71745345,39.7517227 L24.1469331,39.7419551 Z" id="Path" fill="#2F2E41"></path>
                    <path d="M14.9285113,17.4598028 L9.02862486,15.4584161 C11.1629907,13.3737565 12.0346931,11.0849025 11.1525845,8.51242388 L17.7604582,9.68971045 C16.1925154,12.7047572 14.1395742,14.520257 14.9285113,17.4598028 Z" id="Path" fill="#9F616A"></path>
                    <path d="M24.1469331,39.7419551 C18.7800517,44.0014576 13.3161136,44.49244 7.71745824,39.751725 C9.97440829,32.6818297 5.36997962,26.033527 6.0406878,21.014672 C6.45913574,17.8834796 7.76441693,14.0050042 10.799375,13.1032806 L14.0590249,14.0970228 C16.3582914,14.7970793 18.1271466,16.6398486 18.728836,18.9619687 L19.1144824,20.4592603 C20.9807329,22.440028 21.6028203,25.0431396 21.1182297,28.203345 C21.5273627,29.100046 21.3395663,30.2309619 21.1517675,31.3635552 C20.9740296,32.4409364 20.7962917,33.5199901 21.1316482,34.3982902 C21.8533154,36.2865583 23.0158091,38.0064381 24.1469331,39.7419575" id="Path" fill="#E6E6E6"></path>
                    <ellipse id="Oval" fill="#9F616A" cx="16.108491" cy="7.09967807" rx="5.30989779" ry="5.29778959"></ellipse>
                    <path d="M34.341894,37.2640938 L30.6222121,36.0493451 L30.8935604,33.0713154 L34.9778125,32.9807707 C35.6300311,32.9663111 36.2550855,33.2412142 36.6843739,33.7313278 C37.1136623,34.2214414 37.3029642,34.8762795 37.2012176,35.5192065 L37.2012176,35.5192065 C37.1006172,36.1548937 36.7256447,36.7145785 36.175379,37.0503753 C35.6251132,37.3861721 34.9549235,37.4642922 34.341894,37.2640938 Z" id="Path" fill="#9F616A"></path>
                    <path d="M27.1445665,45.8011192 C25.6069669,45.0817532 22.1075399,43.2682707 17.0520632,39.5928029 C10.0901022,34.530451 11.8607756,22.1690161 11.8607756,22.1690161 L21.1517843,31.3635576 C20.9740464,32.4409387 20.7963085,33.5199925 21.131665,34.3982926 C22.6508049,38.3732135 26.1234069,41.6020046 27.1445665,45.8011192 Z" id="Path" fill="#000000" opacity="0.2"></path>
                    <path d="M31.3301994,37.0027633 C26.2929114,38.1162714 22.1718694,38.7838876 18.8224368,36.4141272 C13.5104789,30.2502816 10.4915007,24.0623522 11.6214758,17.8308541 C11.8354811,16.6852084 12.6907981,15.7644957 13.8195332,15.464738 L13.8195332,15.464738 C15.3225701,15.0594395 16.8900185,15.8502376 17.4537566,17.2982509 L21.4669975,30.7178023 L31.8629983,32.7253433 L31.3301994,37.0027633 Z" id="Path" fill="#FFFFFF"></path>
                    <path d="M23.4354106,50.3055254 C22.2178463,50.3036911 21.1641617,49.4601553 20.8985528,48.2746232 L20.5894792,46.8862699 L25.6638497,45.7616016 L25.9728417,47.1497922 C26.2840998,48.5478343 25.4005672,49.9329397 23.9993562,50.2436062 L23.9993562,50.2436062 C23.8141976,50.2846883 23.6250924,50.3054514 23.4354106,50.3055254 Z M20.9895154,47.1404793 L21.2258845,48.2020845 C21.4970544,49.4197025 22.7062114,50.1874515 23.9266122,49.9169 C25.147013,49.6463485 25.9165167,48.4399488 25.6453468,47.2223308 L25.4090593,46.1608883 L20.9895154,47.1404793 Z" id="Shape" fill="#3F3D56"></path>
                    <path d="M21.3990825,4.8854061 C21.3990825,4.8854061 22.2515025,-1.73337624 15.2963288,0.437078235 C15.2963288,0.437078235 10.3289008,-0.472295161 8.69988528,5.72703131 L7.05040028,12.2254519 L7.85427638,11.7889065 L8.22904891,12.6062468 L9.53170156,12.9353925 L10.0891405,11.8315036 L10.3588028,13.1720386 L21.0282599,14.2332586 C21.0282599,14.2332586 16.2496237,11.4136509 16.1738494,6.36023626 L17.0840781,7.3199189 L21.3990825,4.8854061 Z" id="Path" fill="#2F2E41"></path>
                    <polygon id="Path" fill="#9F616A" points="32.0569247 91.2755797 29.6830887 91.9477256 20.3563454 62.3144438 27.2003701 61.1371716"></polygon>
                </g>
                <polygon id="Path" fill="#2F2E41" points="69.706548 62.0379434 81.5834022 62.0379434 80.1744018 74.4911864 69.706548 74.2318036"></polygon>
                <path d="M66.2676301,90.121253 C62.7014321,91.3919891 64.9939873,104.099389 64.9939873,104.099389 L68.0507315,118.839964 L70.8527453,138.91766 L75.437858,138.155218 L73.9094775,122.398032 L73.1453053,103.082793 L79.7682571,119.85656 L84.6081076,138.409365 L89.1932228,137.392784 L88.1743032,130.784934 C87.9195751,126.210267 84.6081004,116.806793 84.6081004,116.806793 L80.7871719,90.375405 L66.2676301,90.121253 Z" id="Path" fill="#2F2E41"></path>
                <path d="M88.152872,135.989375 C88.152872,135.989375 89.8741309,142.604087 89.8300406,143.365272 L89.8286592,143.388033 C89.7758106,144.09715 89.2658918,144.689098 88.5711713,144.84781 C87.8399636,145.020613 86.8736364,145.254134 86.3560284,145.400553 C85.8658881,145.539213 83.4696233,146.324095 81.7188701,145.714014 C79.9681169,145.103933 85.4245292,141.956613 85.4245292,141.956613 L84.9147157,135.770761 L88.152872,135.989375 Z" id="Path" fill="#2F2E41"></path>
                <path d="M74.8676913,137.790697 C74.8676913,137.790697 75.3089231,144.38999 75.1198652,145.128735 C74.9308074,145.867481 74.5002096,145.495479 74.5002096,145.495479 C74.5002096,145.495479 72.1708142,145.573935 71.234823,145.652578 C70.727156,145.695237 68.2247185,146.008808 66.6230795,145.076184 C65.0214406,144.143559 71.234823,141.84036 71.234823,141.84036 L71.6644182,135.925457 L74.8676913,137.790697 Z" id="Path" fill="#2F2E41"></path>
                <ellipse id="Oval" fill="#FFB8B8" cx="75.4378556" cy="64.1981542" rx="4.83984806" ry="4.82881172"></ellipse>
                <polygon id="Path" fill="#FFB8B8" points="73.9095663 67.5019701 74.9283635 74.6182456 79.2587314 72.5850582 78.2396943 66.993733"></polygon>
                <path d="M75.1831396,71.8226022 L74.3308562,70.4449161 L73.4000309,71.5684502 L69.3243623,72.8391887 L68.305438,78.938739 C68.0507099,80.4636247 68.8148942,83.2592538 68.8148942,83.2592538 C68.8148942,83.2592538 66.0128708,88.8505144 66.2676013,90.8836946 C66.5223318,92.9168749 79.5135075,92.1544332 79.5135075,92.1544332 L83.334436,71.8225998 L80.0229636,70.8060061 L79.0040489,69.5352652 L75.947307,71.0601533 L75.4378485,73.0933407 L75.1831396,71.8226022 Z" id="Path" fill="#E6E6E6"></path>
                <path d="M81.0746128,60.5358805 L81.0746128,60.5358805 C81.0746128,60.1375363 80.9160092,59.7555074 80.6336931,59.473836 C80.3513771,59.1921646 79.9684745,59.0339252 79.5692199,59.0339252 L72.3111938,59.0339252 C71.2587997,59.0339252 70.4056664,59.8851154 70.4056664,60.9351097 L70.4056664,63.8541227 C73.8828756,62.0970152 77.4531148,62.4059391 81.0746128,63.8541227 L81.0746128,60.5358805 Z" id="Path" fill="#2F2E41"></path>
                <path d="M64.47707,108.45254 C62.7221558,107.427035 60.9408938,106.33048 59.7222848,104.705952 C58.4496324,103.009376 57.948743,100.5051 59.206274,98.7973233 C60.262595,97.3627908 62.3091208,96.8981008 64.0319458,97.3607425 C65.7547707,97.8233842 67.1768706,99.058838 68.2707226,100.465102 C67.9424123,98.7607441 69.7737771,97.1660068 71.5026962,97.3572322 C73.2316152,97.5484576 74.5857282,99.0922252 75.0084978,100.775739 C75.4312675,102.459252 75.0876609,104.242028 74.5516963,105.89314 C73.64952,108.661517 72.2216721,111.23075 70.3460807,113.460617 C70.0787968,112.949149 69.7524653,112.470631 69.3737385,112.034816 C68.0416779,110.5015 66.2319818,109.478042 64.47707,108.45254 Z" id="Path" fill="#D62727"></path>
                <path d="M75.6925885,91.6461435 L71.3622014,95.9666656 C71.3622014,95.9666656 67.5412825,101.049624 69.3243671,102.066228 C71.1074518,103.082831 73.4000142,97.2374161 73.4000142,97.2374161 L78.7493232,93.4251957 L75.6925885,91.6461435 Z" id="Path" fill="#FFB8B8"></path>
                <path d="M65.5034266,91.9002907 L65.2486986,94.4417726 C65.2486986,94.4417726 67.2865328,98.5081474 65.7581547,99.7788788 C64.2297766,101.04961 62.9561338,94.6959198 62.9561338,94.6959198 L63.4655923,91.6461435 L65.5034266,91.9002907 Z" id="Path" fill="#FFB8B8"></path>
                <path d="M80.7871599,78.6845965 L79.5135075,86.0548925 L74.4189361,91.9002907 L79.2587866,94.1876206 C79.2587866,94.1876206 82.8249966,88.8505096 84.0986394,87.0714695 C85.3722823,85.2924293 85.8817384,76.1431051 85.3722823,74.1099225 C84.8628261,72.0767398 83.334448,71.8225926 83.334448,71.8225926 L82.5702637,72.3308871 L80.7871599,78.6845965 Z" id="Path" fill="#E6E6E6"></path>
                <path d="M69.8338305,81.9885249 L67.7959962,87.325631 L65.7581619,92.6627276 L62.1919519,92.4085804 C62.1919519,92.4085804 64.7392472,87.3256143 64.4845095,86.563175 C64.2297718,85.8007357 67.0317952,76.905554 67.5412513,75.1265186 C68.0507075,73.3474832 69.3243528,72.8391887 69.3243528,72.8391887 L71.3621871,73.3474856 L69.8338305,81.9885249 Z" id="Path" fill="#E6E6E6"></path>
                <path d="M81.8590554,71.7763129 C80.7177243,72.3288771 79.3915036,72.3594886 78.1305046,72.22086 C77.7482789,72.2160178 77.3707358,72.1362519 77.0193513,71.9860995 C78.0243055,71.4051707 78.5674194,70.2687369 78.8880048,69.1549823 C79.0542076,68.575457 79.1762073,67.9842116 79.2529587,67.3863127 C79.317909,66.8710473 79.4274232,66.3623552 79.5802761,65.8659278 C80.1041544,64.1807657 79.5894142,62.3457042 78.264921,61.1766539 C76.9404278,60.0076035 75.0521288,59.7216472 73.4396051,60.4459277 C71.8270815,61.1702081 70.7897654,62.7702325 70.7888714,64.5345932 C70.8250659,65.4142055 71.1026127,66.267021 71.5912509,67.0000573 C72.3013567,68.0805913 73.4745178,68.7704256 74.7659555,68.8668258 C74.9428364,68.8725465 75.1110344,68.9446722 75.2369166,69.0687806 C75.6606456,69.4929719 74.9207105,70.3470302 75.0191919,70.9377888 C75.1437019,71.6849307 75.248709,72.5228997 74.8048127,73.1373018 C74.55774,73.4397842 74.2437746,73.6810293 73.8875523,73.8421074 C72.5080622,74.567331 70.9746434,74.9526294 69.4154209,74.9658089 C70.3096828,74.2120077 70.9114669,73.169832 71.1165006,72.0198623 C71.3128037,70.8919476 71.0986594,69.7311706 70.5126953,68.7469139 C70.5882859,69.8846712 70.4430138,71.0262894 70.0848532,72.1091029 C69.8968989,72.7874888 69.5272593,73.4019699 69.015639,73.8865422 C68.4818089,74.3405362 67.7875734,74.5636006 67.1576267,74.2558372 C67.8107956,73.9132542 68.321899,73.3517597 68.6009636,72.6701975 C68.8753004,71.9918834 69.0103023,71.2655066 68.9979611,70.5341543 C69.0443115,69.8813021 69.0170868,69.2253222 68.9167979,68.5785281 C68.6071336,69.7735646 67.8959172,70.8264324 66.9019201,71.5613052 C66.6376115,71.7749844 66.326176,71.9229128 65.9932983,71.9928903 C65.6684056,72.0581204 65.3337874,71.9407091 65.1213393,71.6869359 C66.1641063,71.2884984 66.890147,70.3344738 66.9947199,69.2252956 C67.0403931,68.6500857 66.9158158,68.0430535 67.1426421,67.5122688 C67.3784788,66.9604823 67.9330254,66.6290873 68.4132439,66.2681888 C68.8934624,65.9072902 69.4738555,65.3400436 69.3528973,64.7524676 C68.9808229,62.9451633 69.2765739,60.8992436 70.5608963,59.5717687 C70.8035991,59.3284522 71.0640714,59.1034479 71.3401659,58.8986107 C71.8047007,58.5175357 72.3243436,58.2087683 72.8814564,57.9827886 C73.4439231,57.7571821 74.0682491,57.7373726 74.6439469,57.9268658 C74.6920999,57.6190641 74.7742584,57.6313513 75.0255162,57.5309529 C75.3520263,57.4020704 75.7006435,57.338126 76.0517481,57.3427186 C78.4820112,57.3651777 80.7892656,58.7925628 82.1165656,60.8217351 C82.2903613,61.0671255 82.4222565,61.3395203 82.5069054,61.6278794 C82.5583957,61.8601848 82.5787001,62.0982893 82.567285,62.3359345 C82.5450983,63.4975241 82.2627898,64.6468409 82.2966874,65.8081481 C82.3305274,66.969453 82.8055344,68.2246358 83.8262191,68.7838496 C83.9075622,70.0469957 83.0004537,71.2237272 81.8590554,71.7763129 Z" id="Path" fill="#2F2E41"></path>
                <ellipse id="Oval" fill="#FFB8B8" cx="79.9476571" cy="64.8096083" rx="1" ry="1"></ellipse>
                <path d="M106.367362,148.225284 C106.367362,148.225284 106.532979,144.7629 109.928145,145.165355" id="Path" fill="#3F3D56"></path>
                <ellipse id="Oval" fill="#6C63FF" cx="105.408043" cy="143.235014" rx="1.69925689" ry="1.69538206"></ellipse>
                <rect id="Rectangle" fill="#3F3D56" x="105.13155" y="146.089935" width="1" height="3.3499616"></rect>
                <path d="M75.9089702,153.728792 C75.9089702,153.728792 76.0745871,150.266408 79.4697529,150.668863" id="Path" fill="#3F3D56"></path>
                <ellipse id="Oval" fill="#6C63FF" cx="74.9496508" cy="148.738522" rx="1.69925689" ry="1.69538206"></ellipse>
                <rect id="Rectangle" fill="#3F3D56" x="74.6731581" y="151.593443" width="1" height="3.3499616"></rect>
                <g id="Group-3" transform="translate(18.264707, 63.849751)">
                    <path d="M7.01398577,78.1631652 C7.01398577,78.1631652 5.8906539,82.0235988 5.14176598,83.0198391 C4.39287807,84.0160794 3.76880241,85.6349627 4.14324636,85.8840323 C4.51769032,86.133102 5.26658064,89.1218133 4.26806102,89.2463433 C3.2695414,89.3708733 1.02288005,86.0085623 0.898065396,84.8877896 C0.773250743,83.7670169 0.273992133,79.7820557 0.273992133,79.7820557 C0.273992133,79.7820557 -0.599708037,76.2952243 0.773250743,76.0461546 C2.14620952,75.797085 4.26805142,75.6725621 4.26805142,75.6725621 L7.01398577,78.1631652 Z" id="Path" fill="#2F2E41"></path>
                    <path d="M12.2562036,82.2726589 C12.2562036,82.2726589 13.8787941,86.5066825 14.2532404,86.7557426 C14.6276868,87.0048026 16.0006408,89.2463433 13.2547208,89.2463433 C10.5088008,89.2463433 9.01102021,88.4991631 9.01102021,88.4991631 L8.13732004,87.5029228 C8.13732004,87.5029228 8.13732004,84.8877992 8.38694935,84.5141995 C8.63657865,84.1405998 8.38694935,82.2726589 8.38694935,82.2726589 L12.2562036,82.2726589 Z" id="Path" fill="#2F2E41"></path>
                    <path d="M23.3647125,43.5437983 C23.3647125,43.5437983 25.3617493,56.9930494 23.6143418,61.3516007 C21.8669342,65.710152 20.1195411,66.9554572 20.1195411,66.9554572 L6.88918071,79.2839356 C6.88918071,79.2839356 2.77029478,77.166925 3.14473874,75.7971041 C3.14473874,75.7971041 4.01843891,75.298984 4.14325596,74.9253963 C4.26807301,74.5518085 5.8906563,74.4272761 5.8906563,74.4272761 C5.8906563,74.4272761 6.63954421,73.5555682 6.63954421,73.0574457 C6.63954421,72.5593232 13.1299085,63.7176882 15.25176,63.095038 C15.25176,63.095038 16.3750919,61.7252076 16.2502773,61.4761451 C16.1254626,61.2270826 16.6247212,60.3553748 16.6247212,60.3553748 L15.3765747,55.498701 L7.51324678,54.2534006 C7.51324678,54.2534006 4.26806341,42.7966324 7.01398817,41.9249198 C9.75991293,41.0532071 23.3647125,43.5437983 23.3647125,43.5437983 Z" id="Path" fill="#2F2E41"></path>
                    <path d="M7.76287369,52.2609056 L7.51324438,54.2533862 C7.51324438,54.2533862 7.51324438,59.4836502 7.76287369,59.9817703 C8.01250299,60.4798905 8.13731765,61.2270707 7.76287369,61.725186 C7.38842973,62.2233014 6.76435647,63.4686018 7.01398577,63.9667267 C7.26361508,64.4648516 6.51472716,78.5367482 7.51324438,79.5329885 C8.5117616,80.5292288 8.13731765,81.7745315 8.01250299,81.8990616 C7.88768834,82.0235916 8.13731765,82.5217117 8.13731765,82.5217117 C8.13731765,82.5217117 13.2547208,83.3934196 12.8802768,82.5217117 C12.5058329,81.6500039 12.5058329,81.1518813 12.2562036,80.9028213 C12.0065743,80.6537612 12.2562036,80.2801687 12.2562036,80.2801687 C12.2562036,80.2801687 11.8817596,76.2952075 12.2562036,76.0461474 C12.6306475,75.7970874 13.7539794,63.8421967 13.7539794,63.7176666 C13.7539794,63.5931366 14.1284234,63.3440765 14.1284234,62.8459588 C14.1284234,62.347841 14.1284234,60.7289458 14.752499,60.4798857 C15.3765747,60.2308256 15.2517576,54.1288514 15.2517576,54.1288514 L7.76287369,52.2609056 Z" id="Path" fill="#2F2E41"></path>
                    <path d="M16.6247188,7.80365861 C16.6247188,7.80365861 16.1254602,11.5395621 14.6276844,12.2867423 C13.1299085,13.0339225 12.1313889,13.4075127 12.1313889,13.4075127 L13.3795355,17.7660663 L13.8787941,21.5019698 L19.6202729,21.5019698 L22.7406392,19.0113691 L21.742122,14.9018755 L21.2428634,14.1546953 C21.2428634,14.1546953 20.6187901,11.4150321 21.1180487,10.5433218 C21.6173073,9.67161155 16.6247188,7.80365861 16.6247188,7.80365861 Z" id="Path" fill="#9F616A"></path>
                    <path d="M19.1210071,16.8943561 L18.2473069,18.5132466 C18.2473069,18.5132466 17.6232336,16.2717059 16.7495311,15.898123 C15.8758285,15.52454 13.753977,14.9018827 13.753977,14.4037625 C13.753977,13.9056424 13.8787917,12.6603468 13.3795331,12.6603468 C12.8802744,12.6603468 8.01250059,14.1547096 7.26361268,14.6528298 C6.51472476,15.1509499 6.38991251,15.6490701 6.38991251,15.6490701 L7.76287369,29.9700315 C7.76287369,29.9700315 5.76584164,36.6946367 6.38991251,39.3097746 C7.01398337,41.9249126 7.51324438,42.2984955 9.01101302,42.672088 C10.5087817,43.0456805 9.63508868,41.8003802 14.0036015,43.0456781 C18.3721144,44.2909761 21.1180415,43.917386 22.1165659,43.917386 C22.7876568,43.9410516 23.4376834,44.1572327 23.9887881,44.5400362 C24.2384174,44.6645662 24.1136028,43.917386 23.2398978,42.7966205 C22.3661928,41.6758549 22.7406392,39.8078972 22.7406392,39.8078972 C22.7406392,39.8078972 23.7391588,36.5701138 23.1150832,35.3248135 C22.4910075,34.0795131 21.6173073,32.4606202 22.3661952,31.9625001 C23.1150832,31.4643799 24.1135956,27.7284764 24.1135956,27.7284764 L26.8595179,18.0151288 L21.2428562,14.1546977 C21.2428562,14.1546977 21.4924855,15.8981134 20.6187829,16.2717083 C19.7450803,16.6453032 19.1210071,16.8943561 19.1210071,16.8943561 Z" id="Path" fill="#E6E6E6"></path>
                    <path d="M26.1106372,17.8905964 L26.8595251,17.8905964 C26.8595251,17.8905964 28.1076717,20.0076094 28.1076717,21.5019698 C28.1076717,22.9963303 27.4835984,31.4643775 27.4835984,31.4643775 L23.8639735,35.200281 L22.9902733,32.3360878 L22.7406392,25.9850488 L26.1106372,17.8905964 Z" id="Path" fill="#E6E6E6"></path>
                    <path d="M24.1136028,31.0907874 C24.1136028,31.0907874 28.2324863,29.9700171 28.1076717,31.7134376 C27.982857,33.4568581 27.3587837,35.5738712 25.3617493,36.0719913 C23.3647149,36.5701114 22.7406488,33.8304506 22.7406488,33.8304506 C22.7406488,33.8304506 22.4910099,31.3398475 24.1136028,31.0907874 Z" id="Path" fill="#E6E6E6"></path>
                    <path d="M8.63657626,36.8191715 C8.63657626,36.8191715 8.88620556,42.5475556 10.3839766,43.1702201 L6.76434927,44.041928 C6.76434927,44.041928 5.01694893,38.0644839 5.26657344,37.8154238 C5.51619795,37.5663637 8.63657626,36.8191715 8.63657626,36.8191715 Z" id="Path" fill="#9F616A"></path>
                    <path d="M7.70046756,17.3302124 L6.88917112,16.1471759 C6.88917112,16.1471759 3.89361706,20.7547896 4.14324636,23.8680429 C4.39287567,26.9812962 4.64250737,27.1058239 4.64250737,27.603944 C4.64250737,28.1020642 5.26658064,28.1020642 4.64250737,28.7247167 C4.01843411,29.3473693 3.14472914,30.2190772 3.64398775,30.7171973 C4.14324636,31.2153175 4.51768792,31.2153175 4.39287567,31.8379677 C4.31305091,32.2903062 4.27130039,32.7485155 4.26806102,33.2078005 C4.26806102,33.2078005 5.32898676,35.2625449 5.70343072,35.2625449 C6.07787468,35.2625449 9.63509588,38.5625944 9.63509588,38.1890043 C9.63509588,37.8154142 9.26064952,35.200281 9.26064952,34.8266909 C9.26064952,34.4531008 9.13583487,33.2078005 8.88620556,32.834208 C8.63657626,32.4606154 8.63657626,32.5851479 8.88620556,32.2115578 C9.13583487,31.8379677 9.13583487,32.2115578 9.13583487,31.8379677 C9.13583487,31.4643775 9.01102021,30.9662598 9.38546657,30.8417274 C9.75991293,30.7171949 10.1343545,30.8417274 9.88472518,30.2190772 C9.63509588,29.596427 9.88472518,29.0983069 10.0095398,29.0983069 C10.1343545,29.0983069 10.7584277,28.9737768 10.3839838,28.6001867 C10.0095398,28.2265966 11.1328717,21.0038497 11.1328717,21.0038497 C11.1328717,21.0038497 10.9456485,19.1981629 7.70046756,17.3302124 Z" id="Path" fill="#000000" opacity="0.1"></path>
                    <path d="M8.38694215,14.6528154 L6.26509306,15.6490557 C6.26509306,15.6490557 3.269539,20.2566695 3.5191683,23.3699204 C3.76879761,26.4831713 4.01842691,26.6077037 4.01842691,27.1058239 C4.01842691,27.603944 4.64250258,27.603944 4.01842691,28.2265942 C3.39435125,28.8492444 2.52065108,29.720957 3.01990969,30.2190772 C3.5191683,30.7171973 3.89360986,30.7171973 3.76879761,31.3398475 C3.68897288,31.7921853 3.64722236,32.2503937 3.64398296,32.7096779 C3.64398296,32.7096779 4.76731723,38.6871245 5.14176119,38.6871245 C5.51620514,38.6871245 9.01101542,38.0644743 9.01101542,37.6908818 C9.01101542,37.3172893 8.63657146,34.7021609 8.63657146,34.3285708 C8.63657146,33.9549807 8.51175681,32.7096779 8.2621275,32.3360878 C8.0124982,31.9624977 8.0124982,32.0870277 8.2621275,31.7134376 C8.51175681,31.3398475 8.51175681,31.7134376 8.51175681,31.3398475 C8.51175681,30.9662574 8.38694215,30.4681396 8.76138611,30.3436072 C9.13583007,30.2190748 9.51027643,30.3436072 9.26064472,29.720957 C9.01101302,29.0983069 9.26064472,28.6001867 9.38546177,28.6001867 C9.51027882,28.6001867 10.1343497,28.4756567 9.75990573,28.1020642 C9.38546177,27.7284717 10.5087936,20.5057295 10.5087936,20.5057295 C10.5087936,20.5057295 11.6321303,16.520766 8.38694215,14.6528154 Z" id="Path" fill="#E6E6E6"></path>
                    <ellipse id="Oval" fill="#9F616A" cx="20.1195315" cy="6.68288828" rx="4.61814455" ry="4.60761375"></ellipse>
                    <path d="M21.8164956,4.02926405 C22.3927482,4.22763532 22.9875244,4.3677216 23.5918577,4.44741105 C24.0466902,4.51821488 24.5789446,4.55446625 24.8986067,4.22397818 C25.2123041,3.89964686 25.1615657,3.35864003 24.9475871,2.96167915 C24.7336085,2.56471827 24.3908293,2.25350445 24.1336837,1.88291973 C23.729261,1.30007905 23.4905728,0.527381698 22.8438788,0.233781492 C22.575876,0.131421897 22.2914839,0.0784215496 22.0045174,0.0773550354 C20.3264111,-0.0293890981 18.5797087,-0.125556924 17.0256496,0.515125624 C16.4417382,0.737090471 15.9244122,1.10433672 15.5228277,1.58196875 C15.259772,1.93366079 15.0568007,2.32632286 14.9221235,2.74407282 C14.0776054,5.24368177 14.5955044,8.00155353 16.2897029,10.0265902 C16.8560683,9.51747503 16.6097582,8.34106902 17.3263818,8.08165038 C17.5614918,7.99653982 17.8272737,8.05576715 18.0680916,7.98839463 C18.8249515,7.77665552 18.7869337,6.60964615 19.4170171,6.14075921 C19.5546228,6.0668749 19.676487,5.96695629 19.7758025,5.84658472 C19.8311954,5.73113665 19.8552648,5.60321042 19.8456074,5.47557887 C19.8502146,5.03840888 19.6443902,3.92789661 20.0623728,3.62823058 C20.4878478,3.32319983 21.4076625,3.88196624 21.8164956,4.02926405 Z" id="Path" fill="#2F2E41"></path>
                    <path d="M27.326306,31.9801879 C27.5658817,32.0434757 27.8170942,31.9303701 27.9280391,31.7092645 C28.5016018,30.5650684 31.8751013,27.9917069 28.6069279,27.1058239 C26.4228669,26.5138043 26.0799582,29.6107624 25.5939813,30.8389038 C25.5314261,30.9967017 25.5395947,31.173673 25.6164216,31.3250666 C25.6932485,31.4764602 25.8313779,31.5877814 25.995881,31.6308802 L27.326306,31.9801879 Z" id="Path" fill="#9F616A"></path>
                </g>
                <path d="M149.296257,28.8526663 C145.168866,26.4407801 140.979504,23.8617858 138.113446,20.0410446 C135.120283,16.0508575 133.942256,10.1610148 136.89984,6.14449938 C139.384204,2.77060948 144.197447,1.67770366 148.249371,2.76579272 C152.301294,3.85388178 155.645937,6.75955951 158.218577,10.0669574 C157.446419,6.05846758 161.753621,2.30779315 165.819877,2.75753985 C169.886132,3.20728655 173.070893,6.83808261 174.065196,10.7975482 C175.059499,14.7570138 174.251383,18.9499358 172.990842,22.8332017 C170.869009,29.344166 167.510844,35.3867618 163.099628,40.6312007 C162.471001,39.4282753 161.703498,38.3028446 160.812766,37.2778508 C157.679883,33.6716363 153.423649,31.2645501 149.296257,28.8526663 Z" id="Path" fill="url(#linearGradient-2)"></path>
                <path d="M163.476708,40.8311695 C169.093306,34.94002 173.273381,27.8365261 175.692341,20.0722878 C176.936597,16.0387856 177.718778,11.4378359 176.094375,7.39079038 C174.838,4.26065565 172.069764,1.38991803 168.561626,1.04707817 C164.859435,0.685282319 160.660719,4.01420376 161.361886,7.95119349 C161.414248,8.24520765 161.020622,8.54474208 160.798513,8.26076344 C157.916017,4.57530558 153.91473,1.14857961 149.059724,0.706889571 C144.735419,0.313482045 140.13426,2.36508706 138.768146,6.7249879 C137.345235,11.2661456 139.497228,16.1571015 142.59535,19.4655523 C146.032096,23.1356075 150.563779,25.4815473 154.83305,28.0267859 C159.03367,30.5310904 163.298224,33.4090448 165.815946,37.7194667 C167.013387,39.7139438 167.729272,41.959049 167.906977,44.2772032 C168.055801,46.6691164 167.403538,48.9119325 166.195743,50.9660236 C164.912867,53.1478058 163.343542,55.1272909 162.178228,57.3838466 C161.031897,59.614183 160.144314,61.967709 159.532691,64.398781 C158.298836,69.2443121 158.170977,74.3043911 159.158545,79.2057979 C160.988478,88.139296 166.758861,96.1005659 174.579151,100.787189 C175.524126,101.352333 176.497052,101.869595 177.494226,102.337005 C177.880666,102.51858 177.529102,103.082388 177.144978,102.9019 C168.750316,98.9012962 162.353958,91.6580319 159.433483,82.845323 C156.305745,73.2665864 157.852134,62.3519784 163.420141,53.9636458 C164.877388,51.7682677 166.55094,49.6454472 167.076537,47.0012484 C167.558178,44.5781924 167.096786,42.0276872 166.119959,39.7837011 C164.027957,34.977918 159.730707,31.7843421 155.37649,29.1295047 C151.023355,26.4753302 146.360859,24.1555296 142.704514,20.5305457 C139.449603,17.3035612 137.100021,12.753507 137.788671,8.06147423 C138.077871,5.91666557 139.128744,3.94656049 140.750303,2.5092072 C142.383061,1.14386578 144.388433,0.298007991 146.507673,0.0807721772 C151.237197,-0.470535789 155.602599,1.86551686 158.887196,5.09928025 C159.742391,5.94798984 160.54162,6.85104663 161.279869,7.80278541 L160.716508,8.11235536 C160.083621,4.55874242 162.978747,1.37641768 166.299436,0.560154075 C169.910671,-0.327530714 173.417696,1.84957344 175.417697,4.73576156 C177.915892,8.34088734 178.01893,12.890676 177.16452,17.0513642 C176.27819,21.3674906 174.555926,25.5728409 172.493193,29.4560494 C170.193602,33.7772609 167.31464,37.765731 163.935735,41.31142 C163.640301,41.6217293 163.182401,41.1402991 163.47672,40.8311623 L163.476708,40.8311695 Z" id="Path" fill="#3F3D56"></path>
                <g id="Group" transform="translate(171.263063, 49.446186)">
                    <path d="M3.29789449,46.3701883 L5.86601898,48.4365356 L19.8664442,37.608883 L19.0380168,18.7638056 L19.0380168,18.7638056 C17.4476071,20.0332319 16.4320708,21.8845202 16.2176176,23.905298 L13.8189257,34.5506887 L3.29789449,46.3701883 Z" id="Path" fill="#FFFFFF"></path>
                    <polygon id="Path" fill="#FFB9B9" points="30.3045783 90.1766287 33.7840299 90.1766287 34.1154747 59.7601739 27.1565716 59.7601739"></polygon>
                    <polygon id="Path" fill="#FFB9B9" points="21.6889305 91.8298348 25.1683821 91.8298348 25.4998269 59.4294848 18.5409238 59.0987957"></polygon>
                    <path d="M17.2154753,62.4050403 L25.8311231,62.7356576 L26.162496,60.9172721 L26.6595506,63.3968874 L34.612455,63.0662725 C34.6111191,55.0264197 34.4391659,46.1425441 35.4408825,43.0640418 L17.0497937,44.8824273 C15.6013556,51.1115708 15.4228695,57.0127986 17.2154753,62.4050403 Z" id="Path" fill="#2F2E41"></path>
                    <path d="M32.3082488,98.1114937 L32.3082488,98.1114937 C34.1680934,98.1114937 35.6261774,98.8319556 35.4568287,96.9840618 L34.9751017,90.7357708 C34.9560853,90.1950201 34.61892,89.716448 34.1153884,89.5154947 L34.1153884,89.5154947 C32.7899031,87.9652489 31.4644195,87.7999411 30.1389374,89.0195712 L30.1389374,89.0195712 C29.7079725,89.5570469 29.4566941,90.2157757 29.4204359,90.9031301 L29.1507305,97.1086947 C29.0574367,98.9123571 30.4980682,98.1114937 32.3082488,98.1114937 Z" id="Path" fill="#2F2E41"></path>
                    <path d="M15.3239732,98.199112 L24.1668766,97.9655718 C24.9251103,97.8605026 25.4821788,97.2023048 25.4589911,96.438889 L25.6256033,92.1275148 C25.6477712,91.6858113 25.3132999,91.3068532 24.8713384,91.2729276 L23.5115319,91.1685667 C23.3502559,89.6923894 22.4494622,89.3342498 21.1919359,89.5154899 L17.2154825,93.9787969 L14.595183,94.7108066 C13.7258258,94.9536701 13.1738555,95.8045001 13.3077764,96.6952688 L13.3077764,96.6952688 C13.4532762,97.663078 14.3524257,98.3337367 15.3239732,98.199112 L15.3239732,98.199112 Z" id="Path" fill="#2F2E41"></path>
                    <ellipse id="Oval" fill="#FFB9B9" cx="25.4997502" cy="7.35757643" rx="5.13625138" ry="5.12453915"></ellipse>
                    <path d="M22.8487837,16.449499 L31.6301131,13.9698838 C29.6662184,13.2076646 28.9081138,11.8780888 29.3105171,10.0025003 L23.5115247,10.0025003 C24.2570286,12.8279872 24.2600409,15.1337322 22.8487837,16.449499 Z" id="Path" fill="#FFB9B9"></path>
                    <path d="M16.5527343,47.0314205 C21.5084921,47.6633166 26.0744593,45.7488638 30.3874971,44.3038339 C32.3345702,43.6514959 34.296057,44.3325 36.1036211,43.2293337 C35.3219796,35.547989 36.0808852,26.8956173 37.7412153,17.6750394 C37.9371879,16.5952756 37.3000575,15.5379906 36.2523156,15.2042872 L30.8016856,13.4739507 L25.9968072,15.1270323 L23.5115247,15.6229558 L18.3938793,19.0729377 C17.7837603,19.4840198 17.4719953,20.213886 17.597342,20.9376938 C19.1348238,29.6092865 18.7785106,38.5097957 16.5527343,47.0314205 L16.5527343,47.0314205 Z" id="Path" fill="#FFFFFF"></path>
                    <polygon id="Path" fill="#FFB9B9" points="30.4703007 44.3864822 32.1272852 48.684483 33.7840299 46.2047935 31.6301179 44.0557932"></polygon>
                    <path d="M20.571002,5.53034945 C22.5680652,4.25156382 24.5596004,3.83035162 26.5460655,4.19014946 C27.7674687,4.41754594 28.8396909,5.14005558 29.5072979,6.18555559 C30.1749048,7.23105561 30.3781248,8.50594124 30.068545,9.70649772 L30.0561026,9.75454813 L30.3530119,9.19784673 C31.1404143,7.72153676 31.4090979,6.02449549 31.1161266,4.3779148 L31.1161266,4.3779148 C30.6508422,1.76287519 28.3190535,-0.105909057 25.6593666,0.00465958104 L24.5417858,0.0511187627 C21.8839721,0.16160981 19.710042,2.20124969 19.4363094,4.84121449 L19.4363094,4.84121449 C19.40772,5.12269202 19.5437163,5.39552863 19.7859352,5.54263584 C20.028154,5.68974304 20.3335268,5.68496393 20.571002,5.53034945 L20.571002,5.53034945 Z" id="Path" fill="#2F2E41"></path>
                    <path d="M31.2987498,44.0558817 L33.6183458,47.0314205 L41.7369366,34.9639591 L41.0347676,22.7041669 C40.8530001,19.5304602 39.054508,16.6708347 36.2693123,15.1270323 L36.2693123,15.1270323 L36.4349988,33.9721073 L31.2987498,44.0558817 Z" id="Path" fill="#FFFFFF"></path>
                    <path d="M0.723025977,51.9753632 L0.723025977,51.9753632 C1.20011447,52.3860451 1.83775286,52.5594514 2.45772707,52.4471165 C3.07770127,52.3347816 3.61351058,51.9487551 3.91540121,51.3969277 L6.11456425,47.3770576 L4.45144012,46.0015035 L0.825968147,48.7419827 C0.324205424,49.1212625 0.021039171,49.7064072 0.00105318164,50.3341607 C-0.0189328077,50.9619142 0.24640095,51.5650761 0.723025977,51.9753632 Z" id="Path" fill="#FFB9B9"></path>
                </g>
            </g>
        </g>
    </g>
</svg>