<?xml version="1.0" encoding="UTF-8"?>
<svg width="178px" height="33px" viewBox="0 0 178 33" version="1.1" xmlns="http://www.w3.org/2000/svg" xmlns:xlink="http://www.w3.org/1999/xlink">
    <title>Group 2</title>
    <g id="Page-1" stroke="none" stroke-width="1" fill="none" fill-rule="evenodd">
        <g id="Group-3" transform="translate(1.000000, -52.000000)">
            <g id="Group-2" transform="translate(0.000000, 53.000000)">
                <polygon id="Path-2" stroke="#666666" fill="#666666" points="0 13.0832319 0 29.462632 9.02340933 29.462632 9.02340933 18.3231922"></polygon>
                <polygon id="Path-3" stroke="#666666" fill="#666666" points="0 0.403397608 0 8.22487737 35.4336946 30.0231479 35.4336946 0.867437787 25.8853272 0.867437787 25.8853272 16.2433166"></polygon>
                <polygon id="Path-4" stroke="#666666" fill="#666666" points="42.127544 0.403397608 42.127544 29.462632 51.762726 29.462632 51.762726 0.403397608"></polygon>
                <polygon id="Path-5" stroke="#666666" fill="#666666" points="55.6500778 0.403397608 55.6500778 7.69313767 71.8236809 7.69313767 71.8236809 0.403397608"></polygon>
                <polygon id="Path-5-Copy" stroke="#666666" fill="#666666" points="55.6500778 11.4033976 55.6500778 18.6931377 71.8236809 18.6931377 71.8236809 11.4033976"></polygon>
                <polygon id="Path-5-Copy-2" stroke="#666666" fill="#666666" points="55.6500778 22.4033976 55.6500778 29.6931377 71.8236809 29.6931377 71.8236809 22.4033976"></polygon>
                <polygon id="Path-6" stroke="#FF9A02" fill="#FF9A02" points="76.6849452 0.403397608 87.5524397 0.403397608 116.642421 29.6931377 105.84692 29.6931377"></polygon>
                <polygon id="Path-7" stroke="#FF9A02" fill="#FF9A02" points="104.540263 0.403397608 115.752498 0.403397608 104.333651 11.5032242 99.0320694 6.4025891"></polygon>
                <polygon id="Path-8" stroke="#FF9A02" fill="#FF9A02" points="88.0511744 17.5523093 93.3241928 22.4033976 86.3379323 29.6931377 75.6634856 29.6931377"></polygon>
                <polygon id="Path-9" stroke="#666666" fill="#666666" points="120.478932 0.403397608 129.655464 0.403397608 129.655464 29.6931377 120.478932 29.6931377"></polygon>
                <path d="M133.536785,13.7513371 L142.625066,13.7513371 C145.275682,8.85652761 149.262341,6.40912287 154.585042,6.40912287 C159.907743,6.40912287 163.876662,8.85652761 166.491798,13.7513371 L175.6333,13.7513371 C171.520907,4.58377903 164.504822,0 154.585042,0 C144.665263,0 137.649177,4.58377903 133.536785,13.7513371 Z" id="Path-10" stroke="#666666" fill="#666666"></path>
                <path d="M133.536785,30.7513371 L142.625066,30.7513371 C145.275682,25.8565276 149.262341,23.4091229 154.585042,23.4091229 C159.907743,23.4091229 163.876662,25.8565276 166.491798,30.7513371 L175.6333,30.7513371 C171.520907,21.583779 164.504822,17 154.585042,17 C144.665263,17 137.649177,21.583779 133.536785,30.7513371 Z" id="Path-10-Copy" stroke="#666666" fill="#666666" transform="translate(154.585042, 23.875669) scale(1, -1) translate(-154.585042, -23.875669) "></path>
            </g>
        </g>
    </g>
</svg>