<?xml version="1.0" encoding="UTF-8"?>
<svg width="16px" height="16px" viewBox="0 0 16 16" version="1.1" xmlns="http://www.w3.org/2000/svg" xmlns:xlink="http://www.w3.org/1999/xlink">
    <title>Combined Shape</title>
    <g id="Page-1" stroke="none" stroke-width="1" fill="none" fill-rule="evenodd">
        <g id="Group-2-Copy" fill="#90B0DC">
            <path d="M8,0 C9.1045695,-2.02906125e-16 10,0.8954305 10,2 L10,5.999 L14,6 C15.1045695,6 16,6.8954305 16,8 C16,9.1045695 15.1045695,10 14,10 L10,10 L10,14 C10,15.1045695 9.1045695,16 8,16 C6.8954305,16 6,15.1045695 6,14 L6,10 L2,10 C0.8954305,10 0,9.1045695 0,8 C0,6.8954305 0.8954305,6 2,6 L6,6 L6,2 C6,0.8954305 6.8954305,2.02906125e-16 8,0 Z" id="Combined-Shape"></path>
        </g>
    </g>
</svg>