<?xml version="1.0" encoding="UTF-8"?>
<svg width="568px" height="480px" viewBox="0 0 568 480" version="1.1" xmlns="http://www.w3.org/2000/svg" xmlns:xlink="http://www.w3.org/1999/xlink">
    <title>stand-with-ukraine</title>
    <g id="Page-1" stroke="none" stroke-width="1" fill="none" fill-rule="evenodd">
        <g id="stand-with-ukraine" transform="translate(0.667485, 0.944897)">
            <path d="M124.807745,44.7748326 C121.278525,31.9077026 149.743345,20.8738926 157.218155,31.2358326 C158.257545,29.7626826 162.098715,28.8678326 163.861155,29.3197726 C165.586263,29.8925745 167.180613,30.801882 168.551905,31.9950526 C170.540285,33.5224826 172.600905,35.1041426 173.821045,37.3003726 C175.050255,39.4875726 175.240045,42.4701626 173.586105,44.3681326 C172.275575,45.8774726 168.407265,46.8535926 166.436975,47.2512726 C165.063235,47.5314526 163.906335,47.7574026 162.912175,47.9200826 C162.009111,46.6190394 161.593109,45.0415085 161.737175,43.4643326 C160.382252,44.3783112 159.507032,45.8502983 159.351175,47.4772226 C159.324035,47.8116226 170.458905,88.7810926 170.458905,88.7810926 C169.12103,89.5424996 167.713795,90.1749853 166.256195,90.6700126 C163.372672,86.2630631 161.164076,81.4498498 159.703615,76.3899126 C159.367937,79.7733559 159.410379,83.183671 159.830155,86.5577126 C160.053413,88.4496958 160.373163,90.3290408 160.788155,92.1884026 C147.556445,95.0444026 127.654705,94.1045126 118.996245,81.9574026 L118.991885,81.8065326 C118.97801,80.8176237 118.265565,79.9771066 117.29229,79.8014102 C116.319015,79.6257137 115.357655,80.1640739 114.998885,81.0857126 C114.788805,81.6216326 114.595475,82.0855126 114.422945,82.4544826 C111.901445,73.4344426 115.164165,62.9955126 124.807745,44.7748326 Z" id="Path" fill="#FFFFFF" fill-rule="nonzero"></path>
            <polygon id="Path" fill="#FFB6B6" fill-rule="nonzero" points="187.207515 456.338103 197.066515 456.255103 201.430515 417.342103 186.880515 417.465103"></polygon>
            <path d="M216.854645,468.406313 L201.108885,457.726453 L201.049465,450.671503 L197.663375,450.898253 L187.167795,451.621753 L184.594635,451.792943 L182.727045,476.727513 L190.123045,476.660443 L191.383335,469.669443 L194.814815,476.625013 L214.416115,476.461463 C216.3446,476.444703 218.038332,475.176359 218.597127,473.33053 C219.155921,471.484701 218.450049,469.489916 216.854665,468.406363 L216.854645,468.406313 Z" id="Path" fill="#FFFFFF" fill-rule="nonzero"></path>
            <polygon id="Path" fill="#FFB6B6" fill-rule="nonzero" points="88.9035153 452.494103 98.6505153 453.975103 109.130515 416.247103 94.7445153 414.061103"></polygon>
            <path d="M116.261815,469.111003 L102.408945,456.069273 L103.469065,449.094183 L100.089865,448.781083 L89.6123653,447.831013 L87.0446153,447.592013 L81.2464653,471.914883 L88.5594653,473.021533 L90.9124653,466.318823 L93.1974653,473.730533 L112.576655,476.677533 C114.483393,476.96681 116.356829,475.983115 117.201271,474.249261 C118.045712,472.515407 117.665114,470.433927 116.261755,469.111083 L116.261815,469.111003 Z" id="Path" fill="#FFFFFF" fill-rule="nonzero"></path>
            <path d="M182.673205,184.475853 L210.626015,234.539973 C210.626015,234.539973 209.459655,337.504673 213.174525,341.323673 C216.889395,345.142673 220.252875,348.567883 216.889395,348.537013 C213.525915,348.506143 209.454965,356.690243 209.454965,356.690243 L202.497965,434.054633 L184.954965,434.054633 C184.954965,434.054633 172.610965,388.431633 175.242055,362.414633 L154.459955,267.337823 C154.459955,267.337823 139.529485,357.251213 136.838705,359.941963 C134.147925,362.632713 132.524785,362.613593 135.354435,365.313963 C138.184085,368.014333 135.354435,374.121543 135.354435,374.121543 L105.856875,435.342413 L89.8568753,433.324553 C89.8568753,433.324553 92.6307053,383.345623 102.289875,361.889723 L102.289875,260.494863 C101.562275,269.188353 135.593145,181.199273 114.782815,187.803373 C121.366715,185.713983 182.673205,184.475853 182.673205,184.475853 Z" id="Path" fill="#FFFFFF" fill-rule="nonzero"></path>
            <path d="M105.319535,270.868473 C107.693624,268.037525 107.382189,263.831004 104.617085,261.380543 C104.343015,261.145252 104.049934,260.933057 103.740845,260.746133 L108.491975,237.428713 L97.5084653,230.855033 L94.4534653,263.500673 C93.0635478,266.25965 93.7074134,269.608803 96.0212553,271.655743 C98.7367347,274.011894 102.848103,273.720601 105.204255,271.005123 C105.243295,270.960103 105.281722,270.914553 105.319535,270.868473 Z" id="Path" fill="#FFB6B6" fill-rule="nonzero"></path>
            <path d="M276.234015,219.817013 C272.576203,219.296445 269.9978,215.958229 270.418355,212.287573 C270.465107,211.929398 270.541438,211.575709 270.646565,211.230133 L251.534065,197.053133 L255.315605,184.824033 L279.397675,207.075443 C282.275061,208.199923 284.033333,211.122225 283.679005,214.191143 C283.464529,215.904232 282.578314,217.461958 281.215318,218.521636 C279.852322,219.581315 278.124195,220.056142 276.411105,219.841663 C276.351965,219.834249 276.292935,219.826033 276.234015,219.817013 Z" id="Path" fill="#FFB6B6" fill-rule="nonzero"></path>
            <circle id="Oval" fill="#FFB6B6" fill-rule="nonzero" cx="146.926145" cy="59.3766426" r="23.18303"></circle>
            <polygon id="Path" fill="#FFB6B6" fill-rule="nonzero" points="482.865515 453.326103 474.747515 458.604103 450.525515 429.805103 462.506515 422.015103"></polygon>
            <path d="M488.658115,461.608753 L463.695505,477.840313 L463.490245,477.524663 C460.001323,472.158654 461.522524,464.980357 466.888095,461.490763 L466.888695,461.490373 L469.198865,455.066163 L479.955865,452.993683 L482.134925,451.576683 L488.658115,461.608753 Z" id="Path" fill="#FFFFFF" fill-rule="nonzero"></path>
            <polygon id="Path" fill="#FFB6B6" fill-rule="nonzero" points="343.749515 467.157103 334.066515 467.156103 329.460515 429.808103 343.751515 429.809103"></polygon>
            <path d="M344.090285,477.258123 L314.314525,477.256993 L314.314525,476.880473 C314.314973,470.479954 319.503556,465.291446 325.904075,465.291093 L325.904795,465.291093 L331.343705,461.164873 L341.491515,465.291753 L344.090755,465.291813 L344.090285,477.258123 Z" id="Path" fill="#FFFFFF" fill-rule="nonzero"></path>
            <path d="M443.975225,236.695143 L357.145975,238.604263 L348.539335,249.362563 C348.539335,249.362563 349.283635,245.569503 348.621175,249.735563 C347.958715,253.901623 331.207565,336.965883 334.374045,339.751683 C337.540525,342.537483 328.369765,361.771683 327.696245,362.944683 C327.022725,364.117683 319.763125,422.014913 327.696245,426.775683 L330.676355,446.984683 L344.542705,446.984683 C344.542705,446.984683 358.433585,430.909553 355.638115,427.995493 C352.842645,425.081433 360.837945,415.391423 361.143615,410.195343 C361.449285,404.999263 364.368525,381.431743 362.106735,377.652953 C359.844945,373.874163 356.787365,359.692953 362.525125,354.195223 C368.262885,348.697493 395.023215,281.138523 395.023215,281.138523 C395.023215,281.138523 402.799625,360.340883 402.781355,366.559873 C402.757595,374.647493 408.068605,370.644783 408.068605,377.744873 C408.068605,379.179323 425.362285,416.047563 436.985005,427.571783 L461.020005,446.060243 L472.113085,437.740433 L472.113085,425.722933 C472.113085,425.722933 461.832845,403.425193 458.246745,399.839093 C454.660645,396.252993 441.419355,385.275693 441.419355,380.255153 C441.419355,375.234613 435.186025,373.485513 439.378515,366.829243 C443.571005,360.172973 442.136575,357.304103 440.702125,354.435243 C439.267675,351.566383 441.987905,234.020303 441.987905,234.020303 L443.975225,236.695143 Z" id="Path" fill="#FFFFFF" fill-rule="nonzero"></path>
            <circle id="Oval" fill="#FFB6B6" fill-rule="nonzero" cx="407.769295" cy="36.1617926" r="26.23785"></circle>
            <path d="M428.730545,246.723303 L436.116175,224.490493 L449.405485,226.937573 L440.760585,250.165643 C442.220266,253.945416 440.560342,258.214865 436.930848,260.016012 C433.301354,261.817159 428.897327,260.556963 426.769985,257.108519 C424.642642,253.660074 425.492425,249.158806 428.730585,246.723303 L428.730545,246.723303 Z" id="Path" fill="#FFB6B6" fill-rule="nonzero"></path>
            <path d="M275.556525,203.757103 L293.652895,188.878703 L303.594615,198.030543 L283.902285,213.080153 C283.12349,217.056439 279.443909,219.784854 275.412847,219.375085 C271.381784,218.965317 268.326499,215.552283 268.36343,211.500619 C268.401036,207.448954 271.518587,204.0927 275.556505,203.757153 L275.556525,203.757103 Z" id="Path" fill="#FFB6B6" fill-rule="nonzero"></path>
            <path d="M376.353865,31.5717326 C379.182605,32.4499426 381.909665,32.9676226 383.749255,30.6473126 C385.588845,28.3270026 385.108125,25.6739126 387.844445,24.5553126 C390.132849,23.7880179 392.625366,23.9034273 394.833075,24.8789026 C395.230575,25.0267826 395.618875,25.1931726 395.997855,25.3595626 C396.210455,25.1746626 396.423115,24.9990826 396.654215,24.8326326 C398.393399,23.5958438 400.540656,23.0731043 402.653715,23.3720826 C401.109213,24.1181312 399.838309,25.3308207 399.020715,26.8386726 C399.778715,27.2176726 400.545975,27.5966726 401.322515,27.9202326 C407.938829,30.6267585 415.443586,30.0581722 421.576605,26.3857126 C418.544525,34.3727126 420.901785,37.2199226 425.348265,44.5136326 L425.523905,44.9388326 C425.080195,43.0253326 430.894805,40.8159426 430.894805,43.5892126 C430.639346,46.4305247 430.017921,49.2269344 429.045955,51.9090226 C434.749625,43.3210926 438.114545,33.2726226 435.905155,23.6308926 C435.433695,21.6064026 435.221095,19.4340326 433.936155,17.7885326 C432.651245,16.1523426 430.284725,15.1909026 428.417375,16.1153326 C427.94579,9.7276682 424.002242,4.11585943 418.152264,1.5077154 C412.302287,-1.10042862 405.492317,-0.282950448 400.425815,3.63562258 C398.114755,5.41974258 396.293675,7.75856258 394.232225,9.83851258 C392.170775,11.9184626 389.730225,13.8135126 386.846035,14.3312026 C385.015695,14.6547826 382.954255,14.4606326 381.493645,15.6162026 C379.801935,16.9566226 379.783485,19.3138926 379.792645,21.5787426 C381.447927,21.5315125 383.079704,21.9788662 384.479475,22.8636426 C382.766068,22.906732 381.109874,23.4890066 379.746475,24.5276426 C379.720206,24.5438466 379.695467,24.56241 379.672565,24.5831026 C379.173345,28.3917126 379.376755,29.1960126 376.353865,31.5717326 Z" id="Path" fill="#343434" fill-rule="nonzero"></path>
            <path d="M0,476.881313 C0,477.197218 0.124144512,477.500456 0.347530175,477.72383 C0.570915838,477.947205 0.874159655,478.07227 1.19006528,478.071318 L565.480065,478.071318 C566.137284,478.071318 566.670065,477.538531 566.670065,476.881313 C566.670065,476.224094 566.137284,475.691307 565.480065,475.691307 L1.19006528,475.691307 C0.874162921,475.690366 0.570925341,475.815435 0.34754201,476.038807 C0.12415868,476.262179 0,476.56541 0,476.881313 Z" id="Path" fill="#CCCCCC" fill-rule="nonzero"></path>
            <path d="M186.214525,155.085503 C186.325605,157.364733 186.456525,159.645433 186.608525,161.905873 L197.869995,161.905873 L197.709355,161.794733 C194.003535,159.349453 190.16614,157.109667 186.214525,155.085503 L186.214525,155.085503 Z" id="Path"></path>
            <path d="M93.2687853,248.600153 L107.333965,249.298513 L115.139695,216.554683 C133.085695,212.519683 137.342395,201.485343 143.794355,203.384683 C172.415995,211.810593 206.431925,210.917403 194.856855,199.342393 C190.110945,194.596473 187.747175,178.842323 186.608505,161.905863 L99.2429053,161.905863 L93.2687853,248.600153 Z" id="Path" fill="#FED701" fill-rule="nonzero"></path>
            <polygon id="Path" fill="#FED701" fill-rule="nonzero" points="197.869515 161.906103 260.325515 205.112103 270.324515 195.196103 236.021515 161.906103"></polygon>
            <path d="M207.861735,134.577143 L185.856285,111.101213 C185.863735,110.855543 185.868375,110.715463 185.868375,110.715463 L185.197535,110.398463 L178.796595,103.569783 C175.116294,99.6171095 169.985379,97.3331127 164.585355,97.2437326 C163.826423,97.2320112 163.067428,97.2626789 162.311915,97.3355926 L158.914755,89.0132626 L130.498925,82.9855526 L124.856835,94.3423726 L113.839925,100.720603 C111.291196,101.573435 108.941622,102.933691 106.932925,104.719323 L105.856815,105.342373 L105.936585,105.669373 C102.332865,109.291836 100.265887,114.165133 100.166325,119.273863 L99.2526253,161.763923 L99.2428653,161.905823 L186.608465,161.905823 C186.456465,159.645383 186.325565,157.364683 186.214465,155.085453 C190.166073,157.109617 194.003461,159.349404 197.709275,161.794683 L197.869915,161.905823 L236.021775,161.905823 L207.861735,134.577143 Z" id="Path" fill="#015ABB" fill-rule="nonzero"></path>
            <path d="M294.319285,181.940303 C296.590225,186.428523 293.399975,183.400303 289.831065,184.211303 C286.262225,185.022303 287.992505,187.131163 288.073505,190.240423 C288.154505,193.349683 275.879595,199.892153 275.879595,199.892153 C283.368665,202.568973 292.750075,213.573243 292.750075,213.573243 C292.750075,213.573243 301.834665,204.002563 303.483965,203.002243 C305.133255,202.001873 306.052565,200.541973 311.270705,198.730633 C316.488845,196.919353 314.298905,195.540383 314.677565,191.701213 C315.056165,187.862043 316.326795,190.700913 323.653885,187.159343 C330.980975,183.617773 325.032885,184.969403 327.060745,180.129863 C329.088745,175.290323 328.439745,177.939923 335.036745,173.938703 C339.002015,171.533703 342.940375,168.001703 348.420595,161.905863 L306.607955,161.905863 C298.896105,172.559073 293.645005,180.607593 294.319285,181.940303 Z" id="Path" fill="#FED701" fill-rule="nonzero"></path>
            <path d="M470.939005,151.840993 C472.404345,139.630183 470.550945,126.589653 468.667285,117.573783 C467.432217,111.657371 463.787343,106.523336 458.609175,103.406303 C458.417955,102.426993 458.078415,101.800593 457.556805,101.615163 C450.099105,98.9639826 429.279805,86.7159926 429.279805,86.7159926 L427.534805,72.7104426 L389.861285,70.9003226 L380.220785,86.7159926 C380.220785,86.7159926 355.249105,89.2260626 355.712115,98.3676026 C349.664515,105.910883 322.743615,139.616203 306.607995,161.905873 L348.420675,161.905873 C352.058005,157.859973 356.373255,152.686823 361.831135,145.956533 C361.868135,145.910883 361.903135,145.863273 361.940025,145.817533 C362.306665,151.273223 362.589195,156.731113 362.757165,161.905873 L469.671615,161.905873 C470.077495,158.871263 470.495465,155.537343 470.939005,151.840993 Z" id="Path" fill="#015ABB" fill-rule="nonzero"></path>
            <path d="M469.671615,161.905873 L362.757125,161.905873 C363.234355,176.609123 362.778915,189.007073 360.638655,192.421313 C357.634875,197.213313 352.549975,213.250423 348.416655,227.330923 C346.793376,232.870109 347.92578,238.85179 351.461438,243.414328 C354.997096,247.976866 360.50682,250.56642 366.275855,250.377063 C391.917395,249.531603 429.440035,247.575553 436.752965,243.283983 C440.730807,243.852699 444.660823,244.716577 448.510475,245.868463 C448.510475,245.868463 451.098365,232.928883 451.960975,231.203603 C452.823645,229.478323 452.823645,227.753103 456.274145,223.439873 C459.724705,219.126703 457.136755,219.126703 455.411535,215.676143 C453.686255,212.225643 456.274145,213.950853 460.587375,207.049733 C464.900605,200.148673 460.587375,204.461843 459.724705,199.286003 C458.862095,194.110163 459.724705,196.698113 463.175265,189.797003 C466.034405,184.078783 467.709285,176.576043 469.671615,161.905873 Z" id="Path" fill="#FED701" fill-rule="nonzero"></path>
            <path d="M112.154475,46.5824426 C108.625265,33.7153126 137.090075,22.6815026 144.564895,33.0434426 C145.604285,31.5702926 149.445455,30.6754426 151.207895,31.1273726 C152.933001,31.7001821 154.527351,32.6094925 155.898645,33.8026626 C157.887025,35.3300926 159.947645,36.9117426 161.167785,39.1079826 C162.396995,41.2951726 162.586785,44.2777726 160.932785,46.1757426 C159.622265,47.6850826 155.753955,48.6612026 153.783665,49.0588826 C152.409925,49.3390626 151.253025,49.5650126 150.258865,49.7276826 C149.3558,48.4266436 148.939798,46.8491154 149.083865,45.2719426 C147.728939,46.1859182 146.853718,47.6579069 146.697865,49.2848326 C146.670725,49.6192326 157.805595,90.5887026 157.805595,90.5887026 C156.46772,91.3501096 155.060485,91.9825953 153.602885,92.4776226 C150.719364,88.0706718 148.510769,83.2574589 147.050305,78.1975226 C146.714627,81.5809659 146.757069,84.991281 147.176845,88.3653226 C147.400107,90.2573019 147.719857,92.1366434 148.134845,93.9960026 C134.903135,96.8520626 115.001405,95.9121226 106.342945,83.7650026 L106.338585,83.6141326 C106.324714,82.6252219 105.612271,81.7847006 104.638995,81.6090014 C103.665719,81.4333023 102.704355,81.9716623 102.345585,82.8933026 C102.135505,83.4292326 101.942175,83.8931126 101.769645,84.2620826 C99.2481853,75.2420426 102.510905,64.8031126 112.154475,46.5824426 Z" id="Path" fill="#FFFFFF" fill-rule="nonzero"></path>
            <path d="M276.273635,120.172213 L276.273635,120.172213 C276.239865,120.205013 276.208765,120.239523 276.175385,120.272603 C270.963275,115.100543 262.569281,115.055024 257.301385,120.170253 L257.301385,120.170253 C252.014777,125.305672 251.83614,133.736041 256.900465,139.090793 L256.897185,139.093983 L257.023285,139.223823 L257.023285,139.223823 L275.672645,158.425653 L295.004285,139.650213 L294.950535,139.594873 C294.983025,139.563943 295.016805,139.535233 295.049065,139.503873 L295.049065,139.503873 C300.387356,134.319178 300.51187,125.788613 295.327175,120.450323 L295.327175,120.450323 C290.142482,115.112039 281.611925,114.987525 276.273635,120.172213 L276.273635,120.172213 Z" id="Path" fill="#FF6366" fill-rule="nonzero"></path>
        </g>
    </g>
</svg>